<?xml version="1.0" encoding="iso-8859-1"?>
<!-- Generator: Adobe Illustrator 16.0.0, SVG Export Plug-In . SVG Version: 6.00 Build 0)  -->
<!DOCTYPE svg PUBLIC "-//W3C//DTD SVG 1.1//EN" "http://www.w3.org/Graphics/SVG/1.1/DTD/svg11.dtd">
<svg version="1.1" id="Layer_1" xmlns="http://www.w3.org/2000/svg" xmlns:xlink="http://www.w3.org/1999/xlink" x="0px" y="0px"
	 width="595.276px" height="841.89px" viewBox="0 0 595.276 841.89" style="enable-background:new 0 0 595.276 841.89;"
	 xml:space="preserve">
<g>
	<defs>
		<rect id="SVGID_1_" x="-57.121" y="-14" width="639.139" height="963.564"/>
	</defs>
	<clipPath id="SVGID_2_">
		<use xlink:href="#SVGID_1_"  style="overflow:visible;"/>
	</clipPath>
	<path style="clip-path:url(#SVGID_2_);" d="M197.911,807.787L197.911,807.787h0.01H197.911 M281.917,688.09
		c0-0.004,0-0.004,0.003-0.008l0.023,0.015c-0.002,0.004-0.004,0.004-0.004,0.008L281.917,688.09 M218.458,587.458l0.004-0.004
		c0,0-0.002-0.002-0.004-0.004l0.002-0.004c0.002,0.004,0.004,0.004,0.006,0.006l-0.004,0.002l0.002,0.004H218.458 M201.223,322.379
		c-0.18,0.114-0.361,0.23-0.542,0.347c0.299-0.599,0.597-1.194,0.894-1.798l0.015-0.018l0.09-0.103l0.067-0.072l0.072-0.085
		c0.158-0.245,0.417-0.49,0.595-0.597l0.099-0.054c4.105,0.468,8.21,1.059,12.333,1.7l0.287-1.891h0.008l-0.295,1.891l2.114,0.33
		l0.087-2.151c1.101-30.387-6.994-60.845-8.565-91.651l-1.908,0.107l1.908-0.107c-0.686-13.399,0.125-26.575,3.076-38.953
		c-3.49,15.951-3.312,33.916-0.91,54.111c4.027,30.586,9.613,55.454,6.653,80.992C212.452,322.401,205.067,319.972,201.223,322.379
		 M199.876,320.075c0,0,0-0.002,0.002-0.004c0-0.001,0.002-0.003,0.002-0.006l1.709,0.845l-1.711-0.839l1.696,0.857L199.876,320.075
		 M202.572,319.966h0.017l-0.002-0.002l0.015-0.004l0.002,0.006H202.572 M202.587,319.962L202.587,319.962v0.002V319.962
		 M202.478,319.567l-0.006-0.068l0.13,0.457l-0.015,0.006L202.478,319.567 M202.624,319.948h0.016h0.02l-0.044,0.01L202.624,319.948
		 M202.455,319.476l0.002-0.031l0.003,0.013l-0.003,0.031L202.455,319.476 M202.134,318.307l0.323,1.139l-0.002,0.031
		L202.134,318.307 M427.188,198.683v-1.348c-1.259-17.416-7.467-31.107-14.931-46.037c-11.208-19.916-22.416-28.622-44.813-36.086
		c-37.328-12.451-70.93-6.226-105.777,12.43c-12.316,6.632-22.064,13.985-29.656,22.12c2.398-2.608,5.004-5.106,7.837-7.486
		l-1.239-1.472l1.239,1.472c32.782-27.587,80.565-42.015,122.197-29.933c18.129,5.263,34.755,12.871,45.42,28.517
		c0.402,0.612,0.82,1.259,1.261,1.906l0.053,0.087l0.068,0.069c0.96,1.191,1.415,1.94,2.484,3.937l1.678-0.911l-1.678,0.911
		l0.017,0.033l0.033,0.054c7.744,12.674,13.884,27.221,16.035,41.838l1.878-0.278l-1.878,0.278l0.155,1.066l0.998,0.419
		c0.012,0.004,0.019,0.009,0.03,0.015l-0.941,0.039l0.193,2.01c0.243,2.256,0.378,4.512,0.398,6.752
		C427.897,198.949,427.545,198.815,427.188,198.683 M431.89,190.45l0.008-0.002l-0.722,1.099L431.89,190.45 M431.908,190.418
		l0.314-0.481l-0.318,0.481l0.318-0.481c0,0.001,0.004,0.001,0.004,0.001l-0.314,0.482L431.908,190.418 M540.353,155.599
		l0.002-0.018c0.002,0,0.006,0,0.008,0l0.002,0.001l-0.006,0.017C540.356,155.599,540.354,155.599,540.353,155.599 M410.281,141.745
		l0.038-0.025v0.002l-1.473,1.2L410.281,141.745"/>
	<path style="clip-path:url(#SVGID_2_);" d="M401.626,826.163l-0.401-0.189l0.294-0.604l-0.294,0.604l-0.438-0.213l-0.402-0.209
		l-0.28-0.349c-6.925-9.004-16.349-10.927-26.891-10.021c-10.472,0.93-21.661,4.86-30.945,7.312
		c-17.303,4.568-36.064,4.921-51.24-6.621c-8.562,4.979-18.463,7.285-28.311,7.285v-1.908c10.017-0.008,20.032-2.47,28.506-7.737
		c0.099,0.145,0.223,0.277,0.374,0.395c15.562,12.168,35.145,11.209,53.277,5.821c17.412-5.157,42.955-13.739,56.733,4.321
		c0.272,0.35,0.774,0.217,1.211-0.11c0.097,0.305,0.575-0.155,0.605-0.311c0.049-0.205,0.095-0.41,0.14-0.619
		c0.043-0.114,0.069-0.227,0.069-0.333c2.399-11.517,0.552-22.819-1.796-34.351l1.886-0.383l-1.886,0.383
		c0-0.003-0.001-0.011-0.003-0.017c-3.023-14.966-6.871-29.723-11.33-44.338c-6.165-20.182-16.915-43.531-40.363-39.943
		c7.373-7.147,15.269-13.651,23.528-19.923c21.782-16.521,41.82-33.375,60.478-53.465c32.425-34.911,59.854-80.14,68.706-127.924
		c3.013-3.363,5.953-6.969,6.875-10.023c0.193-0.649-0.015-1.279-0.63-1.576c1.07,0.524,0.717-2.729,1.052-4.231
		c0.785-3.584,1.556-7.117,1.973-10.771c1.226-10.752-0.33-22.535-2.375-33.079c-0.002-0.004-0.004-0.012-0.004-0.016l0.004-0.002
		l-0.004,0.002c-5.096-26.392-15.985-49.81-29.151-72.892c56.614-52.782,77.731-139.324,60.486-213.814
		c-0.143-0.349-0.368-0.594-0.717-0.714c-0.002-0.002-0.002-0.002-0.004-0.002l0.721-1.783l-0.717,1.765l0.314-1.871l0.211,0.035
		l0.191,0.07c0.769,0.28,1.485,1.014,1.783,1.785l-1.774,0.707l0.03-0.008l1.744-0.699l0.052,0.138l0.035,0.14
		c17.267,74.626-3.595,161.162-59.955,214.61c12.896,22.762,23.555,45.993,28.624,72.164c2.064,10.646,3.67,22.587,2.395,33.691
		c-0.437,3.777-1.207,7.36-1.992,10.962l-0.004-0.002c-0.103,0.417-0.121,1.606-0.224,2.644c-0.042,0.438-0.072,0.844-0.235,1.345
		c0.201,0.648,0.201,1.346-0.015,1.938l0.008,0.004c-1.12,3.595-4.038,7.003-6.94,10.229
		c-9.068,48.146-36.473,93.369-69.049,128.489c-18.758,20.193-38.918,37.101-60.723,53.674l-0.008-0.012
		c-6.795,5.153-13.319,10.461-19.491,16.133c9.565,0.172,17.098,4.952,22.647,11.747c6.838,8.307,11.189,19.567,14.354,29.919
		c4.458,14.668,8.34,29.478,11.382,44.529c2.313,11.491,4.244,22.99,1.824,34.896c-0.021,0.262-0.079,0.493-0.146,0.693
		c-0.034,0.18-0.076,0.357-0.121,0.531h-0.008c-0.251,0.844-0.455,0.903-0.709,1.207c-0.291,0.213-0.494,0.523-1.378,0.656
		c-0.304,0.129-0.664,0.221-1.123,0.235H401.626 M400.787,825.761l0.331-0.679v-0.004L400.787,825.761 M390.505,743.972l1.837-0.558
		L390.505,743.972 M392.342,743.414L392.342,743.414 M256.264,822.824l0.191-1.89h0.002c2.076,0.212,4.17,0.315,6.26,0.315v1.908
		C260.566,823.158,258.398,823.053,256.264,822.824 M197.411,809.624h-0.015l0.525-1.837c19.038,5.298,38.829,11.137,58.534,13.147
		l-0.191,1.89C236.332,820.799,216.419,814.921,197.411,809.624 M132.932,817.755c-0.646-0.789-0.612-1.749-0.439-2.379h0.006
		c0.548-1.665-0.599-5.309-0.143-8.848l1.87,0.296v0.004c-0.439,2.863,0.785,6.469,0.104,9.038
		c-0.334,1.293,1.292,0.926,1.817,0.348c15.509-17.185,42.008-13.951,61.763-8.427l-0.515,1.837
		c-19.577-5.525-45.333-8.375-59.815,7.851h0.002c-0.005,0.004-0.011,0.011-0.016,0.015c0,0-0.001,0-0.003,0.004
		c-0.796,0.809-1.546,1.101-2.64,1.169C134.398,818.662,133.579,818.541,132.932,817.755 M132.356,806.528
		c0.872-5.579,2.709-10.662,3.546-15.716l1.887,0.314c-0.876,5.289-2.726,10.373-3.563,15.697L132.356,806.528 M135.902,790.812
		c2.275-13.864,8.498-27.277,14.407-39.533l1.72,0.831c-0.002,0.004-0.002,0.004-0.003,0.007
		c-5.91,12.222-12.012,25.495-14.233,38.991c-0.001,0.007-0.001,0.011-0.003,0.019L135.902,790.812 M150.309,751.279
		c10.683-22.011,21.753-48.377,43.695-62.958l1.09,1.639c-0.813,0.547-1.614,1.104-2.402,1.681
		c-19.824,14.528-30.315,39.07-40.663,60.47L150.309,751.279 M254.689,682.516c-19.599-8.617-42.359-4.124-59.595,7.444l-1.09-1.639
		c17.866-11.819,41.575-16.559,62.085-7.293c7.114,3.232,13.341,7.679,18.264,13.094c2.193-2.238,4.217-4.595,6.004-7.129v-0.02
		l1.15,0.828l0.433,0.303c-2.269,2.872-4.688,5.593-7.266,8.12c-0.182,0.178-0.364,0.354-0.55,0.531
		C269.084,690.783,262.429,685.916,254.689,682.516 M255.3,682.777l0.789-1.749L255.3,682.777 M280.357,686.974
		c12.535-17.692,21.261-37.502,25.911-58.712l1.758,0.387c-1.295,5.771-2.821,11.463-4.608,17.044
		c-4.697,14.706-11.679,29.99-21.474,42.404L280.357,686.974 M211.171,638.339v0.012V638.339
		c19.771-0.004,39.435-6.974,56.371-16.824c17.907-10.441,33.134-25.516,46.251-41.611c-0.441,16.451-2.217,32.893-5.768,48.745
		l-1.758-0.387c3.036-13.94,4.33-27.945,4.826-42.12c-12.239,14.338-26.316,27.55-42.609,37.032
		c-17.133,9.965-37.101,17.081-57.313,17.081V638.339 M193.81,638.403l0.412-1.87c5.617,1.236,11.289,1.81,16.95,1.806v1.916
		C205.384,640.255,199.562,639.663,193.81,638.403 M141.43,597.106l1.733-0.815c8.971,19.143,30.667,35.749,51.049,40.242h0.009
		l-0.412,1.87C172.776,633.718,150.767,616.878,141.43,597.106 M101.459,603.208c-2.43-4.003-3.669-8.987-4.229-13.69l1.917-0.231
		c0.119,0.832,0.241,1.662,0.371,2.487c1.957,12.45,7.111,16.553,13.5,16.021v2.44c-0.032,0-0.061,0.004-0.09,0.004
		C107.693,610.235,103.807,607.153,101.459,603.208 M113.019,607.795c12.582-1.048,29.961-20.081,37.153-28.733
		c7.448-8.963,14.57-18.251,21.362-27.807c1.739-0.545,3.469-1.243,5.194-2.116c0.956,0.429,2.611-0.667,3.185-1.513
		c22.815-32.88,48.572-67.19,58.134-106.807c18.365,7.906,35.169,18.027,47.186,34.477c15.299,20.963,8.953,45.072-4.719,64.951
		l-1.571-1.085c13.445-19.634,19.371-42.676,4.739-62.732c-11.271-15.439-26.924-25.248-44.315-32.958
		c-10.12,39.202-35.533,72.987-57.88,105.239c-0.56,0.771-1.26,1.347-2.118,1.816c-0.631,0.312-1.381,0.669-2.334,0.593
		c-1.457,0.701-2.926,1.294-4.393,1.775c-7.381,10.385-15.167,20.471-23.345,30.188c-7.918,9.391-18.009,22.136-31.122,26.312
		c-1.818,0.578-3.53,0.84-5.155,0.84v-1.905v1.905V607.795 M175.434,550.527L175.434,550.527 M283.681,476.43l1.537-1.134
		L283.681,476.43 M143.371,591.107c0.784-0.697,1.696-1.275,2.797-1.536c1.064-0.281,2.568-0.106,3.565,0.925
		c3.232,3.6,16.166,3.586,22.222,3.463c6.189-0.018,12.309-0.244,18.34-1.188l0.298,1.885c-5.915,0.915-11.899,1.161-17.869,1.211
		c-0.241,0-0.49,0.004-0.75,0.007v-0.007v0.007c-6.595,0.076-18.91,0.376-23.57-4.029c-1.991-1.87-6.277,2.22-5.243,4.439
		c0,0.004,0.002,0.006,0.002,0.008l-1.733,0.815C140.466,594.446,141.935,592.542,143.371,591.107 M190.295,592.771
		c8.458-1.343,16.83-3.339,24.884-6.169c-12.657-15.121-18.947-37.466-18.782-54.643l1.926,0.019
		c-0.218,17.509,6.668,40.917,20.137,55.469l-0.003,0.006l0.001,0.006c-8.586,3.244-17.534,5.472-26.589,6.988
		c-0.423,0.074-0.851,0.145-1.275,0.209L190.295,592.771 M98.589,532.035c-4.781-3.465-8.915-7.736-11.502-13.203l-0.035-0.107
		l-0.036-0.105l-0.037-0.11c-0.507-1.082-0.421-2.409,0.161-3.507v-0.019c10.629-20.542,15.509-43.517,22.291-65.948
		c6.102-20.109,13.882-39.499,25.37-57.35l1.597,1.023c-0.003,0.002-0.005,0.006-0.007,0.008
		c-11.327,17.642-19.055,36.891-25.122,56.876c-0.001,0.002-0.001,0.002-0.001,0.004l-1.836-0.562l1.836,0.562
		c-6.767,22.305-11.645,45.421-22.433,66.26c0,0.002-0.002,0.006-0.002,0.006l-0.563-0.291l-1.129-0.569l1.692,0.86
		c-0.378,0.749-0.362,1.441-0.085,1.936c0.016,0.079,0.037,0.157,0.072,0.229c2.512,5.311,6.631,9.477,11.506,12.888
		c-3.131,19.612-3.867,39.336-1.179,58.371l-1.917,0.231l1.885-0.228l-1.885,0.228C94.982,570.535,95.697,551.188,98.589,532.035
		 M87.352,519.108L87.352,519.108 M87.087,518.832l0.052-0.026v-0.002L87.087,518.832 M87.688,518.55l0.499-0.235l0.016-0.013
		l-0.494,0.231L87.688,518.55 M86.949,518.409L86.949,518.409 M97.23,589.518L97.23,589.518 M218.462,587.454l0.004-0.002
		c0,0.002,0.002,0.002,0.002,0.002c0,0.002-0.002,0.004-0.004,0.004L218.462,587.454 M266.98,556.311v-0.004V556.311
		c-23.185-0.867-43.541-17.811-64.654-27.742c-1.784-0.841-3.986,1.853-4.003,3.409l-1.926-0.019
		c0.087-1.624,0.856-2.85,1.906-3.949c1.014-0.998,2.762-2.08,4.825-1.188c21.139,10.032,41.164,26.408,63.099,27.535
		c4.682-4.709,8.974-9.757,12.715-15.194l1.571,1.085c-3.967,5.771-8.507,11.127-13.485,16.063H266.98 M202.326,528.552l0.802-1.73
		L202.326,528.552 M134.801,391.685c11.961-18.638,26.313-35.842,42.574-50.913c5.902-5.444,11.934-12.018,18.745-17.171
		c0.076-0.354,0.196-0.678,0.35-0.995l2.358,1.188l-2.358-1.188c0.56-1.119,1.117-2.256,1.696-3.392l3.409,1.714l-1.696-0.857
		l1.711,0.839l-0.015,0.018c-0.297,0.604-0.595,1.2-0.894,1.798c-8.008,5.168-15.017,12.998-21.994,19.445
		c-16.155,14.948-30.383,32.043-42.289,50.538L134.801,391.685 M214.845,321.699l0.295-1.891h-0.008L214.845,321.699
		c-4.123-0.642-8.227-1.232-12.333-1.7l-0.099,0.054c-0.177,0.107-0.437,0.352-0.595,0.597l-0.072,0.085l-0.067,0.072l-0.09,0.103
		l-3.424-1.696c0.21-0.419,0.454-0.734,0.699-0.994l0,0c0.87-1.062,1.979-2.113,3.969-2.047c3.509,0.406,6.982,0.898,10.447,1.421
		c0.67-28.922-7.026-58.599-8.614-89.157l3.814-0.209c1.571,30.806,9.666,61.264,8.565,91.651l-0.087,2.151L214.845,321.699
		 M202.394,319.984L202.394,319.984 M202.604,319.966l-0.002-0.006v-0.004l-0.13-0.457l0.006,0.068l0.109,0.395v0.002l0.002,0.002
		h-0.017H202.604 M202.614,319.958l0.044-0.01h-0.02h-0.016L202.614,319.958 M202.457,319.489l0.003-0.031l-0.003-0.013
		l-0.002,0.031L202.457,319.489 M202.455,319.476l0.002-0.031l-0.323-1.139L202.455,319.476 M202.134,318.307L202.134,318.307
		 M202.624,318.077l0.21-1.905L202.624,318.077 M206.573,228.334l1.908-0.107L206.573,228.334 M202.587,319.962l0.015-0.006v0.004
		l-0.015,0.004V319.962 M237.383,139.338l2.464,2.937c-2.833,2.379-5.439,4.878-7.837,7.486
		c-10.772,11.539-17.205,24.654-20.454,39.513c-2.951,12.377-3.761,25.554-3.076,38.953l-3.814,0.209
		C202.938,195.008,210.402,162.015,237.383,139.338 M445.094,210.516c-4.305-5.164-10.219-8.857-16.844-11.432
		c-0.021-2.241-0.155-4.497-0.398-6.752l-0.193-2.01l0.941-0.039c-0.012-0.006-0.019-0.011-0.03-0.015l-0.998-0.419l-0.155-1.066
		l1.878-0.278l-1.878,0.278c-2.151-14.617-8.291-29.164-16.035-41.838l-0.033-0.054l-0.017-0.033l1.678-0.911l-1.678,0.911
		c-1.069-1.996-1.524-2.745-2.484-3.937l-0.068-0.069l-0.053-0.087c-0.44-0.647-0.858-1.294-1.261-1.906
		c-10.665-15.646-27.291-23.254-45.42-28.517c-41.632-12.082-89.415,2.345-122.197,29.933l-2.464-2.937
		c33.674-28.272,82.502-43.149,125.724-30.667c18.432,5.35,36.09,13.271,47.507,30.038c0.444,0.651,0.872,1.302,1.283,1.92
		c1.077,1.327,1.768,2.471,2.785,4.402c7.748,12.704,13.962,27.234,16.345,42.13c0.711,0.311,1.469,0.68,2.247,1.187
		c0.804,0.4,1.381,1.818,1.081,2.621c-0.208,0.822-0.592,1.241-0.945,1.628c-0.557,0.497-0.967,0.86-1.586,1.125
		c0.129,1.633,0.209,3.267,0.235,4.901c5.586,2.574,10.621,6.025,14.483,10.669c2.687,3.223,4.841,6.815,6.557,10.63
		c1.552-15.778-1.287-31.088-2.66-47.891l-0.471,0.421l0.376-1.596c-0.038-0.498-0.075-0.999-0.112-1.498l-0.002,0.002v-0.018
		v-0.001c-0.008-1.409,0.531-2.394,1.241-3.258c0.819-3.103,2.56-5.692,4.8-7.796c0.008-5.626,0.178-11.266,0.588-16.921
		l1.896,0.141c-0.115,1.93-0.2,3.715-0.272,5.297c-0.189,4.103-0.266,8.195-0.251,12.282c-2.436,2.121-4.233,4.691-4.981,7.821
		c-0.681,0.725-1.157,1.642-1.111,2.312c1.392,20.07,6.044,38.801,1.874,58.616C452.115,221.455,449.244,215.512,445.094,210.516
		 M430.22,199.658h-0.051H430.22 M431.176,191.547l0.722-1.099l-0.008,0.002L431.176,191.547 M431.699,190.733l0.187-0.281
		L431.699,190.733 M431.912,190.42l1.362-2.073l-1.37,2.071l0.318-0.481l-0.314,0.481L431.912,190.42 M431.419,190.304
		L431.419,190.304 M430.982,190.024L430.982,190.024 M430.721,189.867L430.721,189.867 M456.279,160.983L456.279,160.983
		 M408.847,142.922l1.478-1.206l-0.043,0.029L408.847,142.922 M407.465,140.859l1.575-1.084L407.465,140.859 M362.045,112.343
		l0.523-1.835L362.045,112.343 M538.857,155.32c-0.471-0.085-0.934-0.054-1.368,0.065c-1.283-1.594-3.303-1.839-5.572-2.618
		c-1.68-0.571-3.327-1.138-4.966-1.675c-3.077-7.854-6.716-15.5-10.733-22.944c-5.879-10.903-15.471-27.641-28.899-30.726
		l0.54-1.758l-0.548,1.756c-0.632-0.144-1.27-0.258-1.918-0.34c-21.882-2.79-25.581,26.842-26.637,44.426l-1.896-0.141
		c0.523-7.22,1.799-20.159,6.032-30.649c2.114-5.246,4.982-9.948,9.107-12.955c4.128-3.025,9.58-4.091,15.859-2.097
		c15.647,4.929,25.021,21.801,31.663,34.581c3.229,6.278,6.269,12.718,8.913,19.33c1.361,0.447,2.717,0.911,4.094,1.389
		c1.727,0.653,3.821,0.845,5.635,2.395c0.334-0.011,0.679,0.01,1.028,0.07l-0.147,0.832l0.147-0.832h0.034l0.017,0.018
		c0.473,0.087,0.945,0.176,1.435,0.262l-0.324,1.889C539.848,155.511,539.362,155.406,538.857,155.32 M532.528,150.965
		L532.528,150.965 M517.826,131.121l1.695-0.875L517.826,131.121"/>
	<path style="clip-path:url(#SVGID_2_);fill:#448A8A;" d="M96.304,522.242c1.472,0.943,3.253,1.738,5.104,2.415
		c-0.118,0.631-0.231,1.258-0.344,1.889C99.332,525.24,97.727,523.812,96.304,522.242"/>
	<path style="clip-path:url(#SVGID_2_);" d="M174.625,546.852l1.131-0.565c0.111,0.588,0.215,1.186,0.31,1.794
		c0.089,0.58,0.334,0.911,0.662,1.059c-1.726,0.873-3.456,1.571-5.194,2.116C172.57,549.792,173.604,548.323,174.625,546.852
		 M88.82,518.027c-0.035-0.072-0.056-0.15-0.072-0.229c0.408,0.731,1.379,1.04,2.485,0.456c0.46-0.245,0.922-0.478,1.385-0.703
		c0.272,1.874,1.698,3.415,3.686,4.691c1.423,1.57,3.028,2.998,4.76,4.304c-0.258,1.454-0.504,2.912-0.738,4.369
		C95.451,527.504,91.332,523.338,88.82,518.027"/>
	<path style="clip-path:url(#SVGID_2_);fill:#448A8A;" d="M455.819,165.809c0.562-1.37,1.394-2.591,2.44-3.685
		c0.008,0.509,0.016,1.016,0.026,1.523c-0.885,0.677-1.655,1.424-2.262,2.244C455.956,165.857,455.89,165.83,455.819,165.809"/>
	<path style="clip-path:url(#SVGID_2_);" d="M458.232,159.085c0.004,1.012,0.015,2.028,0.027,3.039
		c-1.047,1.094-1.878,2.315-2.44,3.685c-0.827-0.252-1.82,0.305-2.568,1.097C453.999,163.777,455.797,161.207,458.232,159.085
		 M528.453,155.078c-0.483-1.335-0.986-2.662-1.502-3.985c1.639,0.537,3.286,1.104,4.966,1.675c2.27,0.779,4.289,1.023,5.572,2.618
		c-1.375,0.378-2.499,1.643-2.897,3.012c-0.106,0.369-0.234,0.734-0.382,1.095C533.559,157.086,531.081,155.796,528.453,155.078"/>
	<path style="clip-path:url(#SVGID_2_);fill:#448A8A;" d="M92.618,517.551c3.611-1.742,7.278-2.867,10.987-3.539
		c-0.803,3.539-1.539,7.091-2.197,10.646C97.06,523.067,93.093,520.813,92.618,517.551"/>
	<path style="clip-path:url(#SVGID_2_);fill:#448A8A;" d="M456.404,166.159c-0.121-0.115-0.247-0.202-0.38-0.269
		c0.606-0.819,1.377-1.566,2.262-2.244c0.026,1.457,0.064,2.911,0.112,4.369C457.725,167.416,457.061,166.797,456.404,166.159
		 M528.453,155.078c2.628,0.718,5.105,2.008,5.757,4.415c-0.628,1.535-1.606,2.97-2.854,4.311
		C530.473,160.869,529.503,157.957,528.453,155.078"/>
	<path style="clip-path:url(#SVGID_2_);fill:#C7C8CA;" d="M360.261,729.371c-8.62,1.996-9.007,6.925-22.538,8.882
		c-9.053,1.317-11.854-0.91-11.739-4.287c3.566-7.559,9.573-14.267,15.06-20.45c1.399-1.575,2.819-3.112,4.261-4.622
		c24.663-4.766,34.354,20.815,40.353,41.009C370.551,726.871,362.454,728.87,360.261,729.371"/>
	<path style="clip-path:url(#SVGID_2_);fill:#C7C8CA;" d="M439.636,311.088l0.172,0.526c-0.266,0.054-0.516,0.104-0.751,0.149
		C439.254,311.539,439.443,311.313,439.636,311.088 M462.701,164.335c-0.799-22.691-0.723-71.664,24.543-61.364
		c3.194,1.302,6.129,3.234,8.829,5.611c1.229,3.114,3.233,8.175,5.369,13.5c3.464,8.674,4.845,33.657-9.372,43.728
		c-3.931,2.782-8.124,3.789-12.135,3.789C472.761,169.598,466.169,166.38,462.701,164.335"/>
	<path style="clip-path:url(#SVGID_2_);" d="M458.398,168.016c-0.227-7.054-0.245-14.121,0.085-21.212
		c0.736-15.979,2.626-52.819,26.909-49.723c14.441,1.834,24.67,19.65,30.825,31.068c6.154,11.403,11.42,23.285,15.139,35.655
		c-0.672,0.721-1.419,1.414-2.231,2.083c-2.558-6.677-10.936-28.277-15.898-37.896c-5.892-11.452-18.395-22.555-18.395-22.555
		s0.468,1.189,1.241,3.146c-2.7-2.376-5.635-4.309-8.829-5.611c-25.266-10.3-25.342,38.673-24.543,61.364
		c-1.617-0.957-2.556-1.655-2.556-1.655l0.455,7.2C459.857,169.281,459.123,168.659,458.398,168.016"/>
	<path style="clip-path:url(#SVGID_2_);fill:#C7C8CA;" d="M342.651,535.316l1.908-13.321c0,0,29.982,10.962,40.212,19.005
		c10.245,8.06,32.047,33.776,32.047,33.776s15.492-18.409,11.105-53.517c-1.381-11.025-6.223-25.946-12.782-41.616
		c-4.432-15.04-22.88-68.252-71.07-105.003c-38.469-29.34-25.914-29.987-25.914-29.987s-17.675-1.364-29.271-6.486
		c-11.034-4.871-24.735-7.517-33.968-8.857l39.542-29.438c0.125,0.167,0.247,0.331,0.372,0.494
		c21.696,28.598,54.194,32.598,76.341,28.712c-1.798,12.659,1.811,25.375,13.739,34.109c8.268,6.047,17.727,5.645,27.448,6.24
		c5.718,0.332,10.389,1.855,15.386,4.688c1.813,1.031,3.756,2.43,5.786,3.852c9.038,23.618,18.967,52.345,25.458,71.516
		c4.163,14.396,8.319,28.79,12.46,43.189c0.908,6.458,1.808,14.398,1.808,20.546c0,12.43-1.468,29.982-1.468,29.982
		s5.122-3.654,8.04-10.226c1.487-3.377,4.321-7.676,6.734-11.104c-6.313,21.558-24.219,68.204-62.298,73.241
		c-1.529,0.204-3.067,0.302-4.606,0.302C391.632,595.418,362.374,562.829,342.651,535.316 M370.715,325.28
		c-21.227,3.777-52.191,0-72.839-27.222c-0.118-0.154-0.233-0.311-0.349-0.467l91.146-67.846l-1.555,68.194
		c-7.319,7.373-12.869,17.087-15.188,27.112C371.522,325.133,371.116,325.21,370.715,325.28l0.564,3.109L370.715,325.28"/>
	<path style="clip-path:url(#SVGID_2_);" d="M335.45,718.463c0,0,1.586-3.874,7.714-10.571c-0.175,0.816,0.155,1.415,1.431,1.146
		c0.236-0.05,0.474-0.1,0.709-0.145c-1.441,1.51-2.861,3.047-4.261,4.622c-5.486,6.184-11.493,12.892-15.06,20.45
		C326.184,728.005,335.45,718.463,335.45,718.463 M356.622,695.469c0.649-0.538,1.31-1.047,1.978-1.536
		c2.675-2.379,5.752-4.88,9.197-7.342c6.066-4.355,13.724-10.525,20.367-16.017l0.068,0.017c0.755-0.646,1.521-1.31,2.311-1.992
		c7.148-5.961,12.586-10.7,12.586-10.7l-0.629-0.087c14.843-13.763,31.56-30.354,37.118-36.368
		c8.778-9.513,38.747-56.298,43.133-65.076c3.121-6.239,10.308-32.437,14.2-47.062c1.516-1.868,3.729-4.165,5.902-6.589
		c-8.852,47.784-36.281,93.013-68.706,127.924c-18.657,20.09-38.695,36.944-60.478,53.465c-8.26,6.271-16.155,12.775-23.528,19.923
		c-1.332,0.206-2.701,0.494-4.117,0.877C348.815,702.117,352.296,698.952,356.622,695.469 M274.124,696.756
		c0.186-0.178,0.368-0.354,0.55-0.531c13.709-13.429,22.955-32.418,28.744-50.532c6.694-20.929,9.774-43.351,10.376-65.789
		c0.655-0.809,1.312-1.62,1.961-2.436c0.327,7.62,0.479,15.262,0.288,22.033c-0.455,16.331-7.36,39.372-14.653,57.506
		c-4.105,9.284-9.159,20.387-10.927,22.94c-2.455,3.547-11.51,13.705-15.378,17.984C274.77,697.537,274.449,697.143,274.124,696.756
		"/>
	<path style="clip-path:url(#SVGID_2_);fill:#C7C8CA;" d="M244.516,328.098c0,0,0.486,0.334,1.396,0.959
		c-8.803-2.205-17.676-3.583-26.392-3.74c-0.649-0.283-1.396-0.604-2.22-0.939c2.959-25.539-2.626-50.406-6.653-80.992
		c-6.225-52.278,2.482-89.605,51.02-115.744c34.847-18.656,68.449-24.88,105.777-12.43c22.397,7.464,33.605,16.17,44.813,36.086
		c7.464,14.93,13.672,28.621,14.931,46.037v1.348c-11.97-4.386-26.064-5.248-37.152-4.567c-1.12,0.07-2.642,2.587-1.173,2.465
		c0.189-0.014,0.38-0.027,0.569-0.039l-0.635,27.75c-14.491-1.283-31.537-1.43-50.725,0.736
		c-32.119,3.62-49.322,7.238-58.588,10.001c-9.268,2.817-10.7,4.563-11.28,5.368l1.651,0.983l-1.298,1.412l1.293-1.416l-1.646-0.979
		l-0.804,1.331l1.157,1.064l0.015,0.017l0.09,0.088l0.347,0.334c0.299,0.28,0.734,0.715,1.259,1.274
		c1.068,1.119,2.516,2.71,3.988,4.599c2.97,3.759,6.047,8.777,6.713,13.287c1.899,12.362,3.901,24.621,13.491,37.482l-39.542,29.438
		C248.705,328.409,244.516,328.098,244.516,328.098 M284.747,261.814c-1.442-8.643-8.666-16.81-11.963-20.196
		c1.324-0.688,3.691-1.713,7.783-2.917c8.917-2.675,25.948-6.277,57.926-9.878c19.021-2.143,35.905-1.98,50.218-0.698l-0.039,1.622
		l-91.146,67.846C288.511,285.462,286.662,274.21,284.747,261.814 M270.401,241.707l-0.007-0.008l0.015,0.01l0.007,0.008
		L270.401,241.707"/>
	<path style="clip-path:url(#SVGID_2_);" d="M203.404,367.83c9.23-17.4,15.408-34.817,16.67-54.574
		c1.306-20.386-2.556-40.835-5.447-60.922c-4.924-34.221-6.646-72.071,17.516-99.827c13.474-15.479,32.827-25.309,51.633-32.669
		c22.982-8.994,47.752-10.57,71.708-4.944c17.53,4.117,34.172,11.747,45.752,25.845c13.295,16.176,23.008,40.831,22.971,61.744
		c-0.008,3.674,5.963-0.095,5.957-2.827c-0.039-21.112-9.394-42.661-21.125-59.875c-11.04-16.2-28.182-23.971-46.462-29.266
		c-42.429-12.292-90.737,2.363-123.967,30.295c-26.361,22.16-33.736,54.391-32.031,87.521c2.455,47.745,20.215,93.986-3.618,139.487
		C202.774,368.177,203.284,368.058,203.404,367.83"/>
	<path style="clip-path:url(#SVGID_2_);fill:#C7C8CA;" d="M106.536,595.388c-1.681-4.693-2.039-10.48-2.332-13.807
		c-1.152-13.201-0.471-26.647,0.789-39.812c0.588-6.163,1.434-12.303,2.5-18.402c2.239-0.274,5.842-0.621,9.79-0.621
		c6.541,0,18.987,3.428,18.987,3.428s4.059,9.968,1.559,25.527c-2.482,15.577-9.654,31.768-22.1,43.902
		c-1.905,1.859-3.555,2.646-4.983,2.646C109.047,598.249,107.664,597.137,106.536,595.388"/>
	<path style="clip-path:url(#SVGID_2_);" d="M99.518,591.773c-3.98-25.269-1.808-51.822,4.087-77.762
		c1.276-0.229,2.555-0.407,3.839-0.537l-2.297,10.217c0,0,0.879-0.149,2.345-0.325c-1.066,6.1-1.911,12.239-2.5,18.402
		c-1.26,13.165-1.941,26.611-0.789,39.812c0.293,3.326,0.65,9.113,2.332,13.807c-4.123-6.394-4.812-21.274-4.812-21.274
		s0.612,19.005,4.039,26.158c3.424,7.167,15.575,3.11,20.541-0.316c4.983-3.425,25.529-25.212,31.454-33.306
		c5.91-8.097,12.134-17.433,12.134-17.433l4.734-2.365c-7.712,11.109-15.866,21.877-24.454,32.21
		c-7.396,8.898-25.571,28.783-38.219,28.779C106.06,607.841,101.364,603.526,99.518,591.773"/>
	<path style="clip-path:url(#SVGID_2_);fill:#C7C8CA;" d="M427.746,374.116c-4.997-2.832-9.668-4.356-15.386-4.688
		c-9.722-0.595-19.181-0.193-27.448-6.24c-11.929-8.734-15.537-21.451-13.739-34.109c0.076-0.011,0.15-0.024,0.225-0.039
		l-0.118-0.651l0.118,0.651c5.076-0.903,10.164-2.566,15.121-4.954l-0.385,16.949c-0.069,0.052-0.141,0.104-0.208,0.156
		c-0.49,0.387-0.752,1.486,0.208,1.103c2.729-1.103,6.4-0.91,9.304-1.924c3.268-1.14,6.447-2.492,9.573-3.951
		c6.31,1.285,14.878,7.502,23.138,27.852c1.734,4.269,3.539,8.877,5.384,13.697C431.502,376.546,429.56,375.147,427.746,374.116
		 M387.117,297.94l-0.499,21.824c-4.821,2.52-9.772,4.292-14.689,5.289C374.248,315.027,379.798,305.312,387.117,297.94"/>
	<path style="clip-path:url(#SVGID_2_);" d="M402.819,823.939c0.326-0.243,0.616-0.592,0.745-0.93
		c-0.045,0.209-0.091,0.414-0.14,0.619c-0.022,0.117-0.306,0.413-0.482,0.413C402.886,824.042,402.845,824.012,402.819,823.939
		 M403.568,822.389c-0.364-0.68-0.758-1.332-1.18-1.962c-0.22-6.508-1.566-32.214-9.577-58.588
		c-2.54-4.583-4.924-8.533-7.155-11.937c-6.057-20.387-15.875-46.264-41.062-40.864c-1.275,0.269-1.605-0.33-1.431-1.146
		c0.86-0.941,1.813-1.935,2.86-2.986c26.333-7.125,37.962,17.738,44.48,39.066c4.459,14.615,8.307,29.372,11.33,44.338
		c2.349,11.535,4.2,22.843,1.799,34.367C403.638,822.574,403.614,822.475,403.568,822.389"/>
	<path style="clip-path:url(#SVGID_2_);" d="M401.608,824.05c-13.778-18.061-39.321-9.479-56.733-4.321
		c-18.133,5.388-37.715,6.347-53.277-5.821c-0.151-0.117-0.275-0.25-0.374-0.395c1.059-0.656,2.095-1.361,3.104-2.105
		c2.45,2.526,9.686,7.865,27.273,8.131c23.096,0.35,39.882-10.84,56.334-9.091c16.452,1.745,24.496,11.558,24.496,11.558
		s-0.008-0.554-0.042-1.578c0.422,0.63,0.815,1.282,1.18,1.962c0.355,0.64-0.769,1.866-1.524,1.866
		C401.872,824.255,401.721,824.193,401.608,824.05"/>
	<path style="clip-path:url(#SVGID_2_);fill:#C7C8CA;" d="M160.243,745.774c9.282-19.287,18.585-38.99,36.242-52.051
		c15.788-11.663,36.858-13.185,54.955-6.629c19.51,7.08,30.474,25.02,31.84,45.023c0,0.026,0.004,0.054,0.011,0.072
		c-2.637,17.291-24.646,13.219-50.422,0.888c-27.483-13.146-45.42-14.354-57.362-1.207c-3.266,3.59-9.205,9.225-16.318,16.11
		C159.535,747.246,159.887,746.51,160.243,745.774"/>
	<path style="clip-path:url(#SVGID_2_);" d="M256.457,820.935c-19.708-2.007-39.498-7.85-58.536-13.147
		c-19.76-5.524-46.263-8.758-61.773,8.427c-0.525,0.578-2.151,0.945-1.817-0.348c0.68-2.569-0.543-6.175-0.104-9.038
		c0.839-5.336,2.69-10.423,3.566-15.72c2.221-13.496,8.323-26.77,14.233-38.991c10.348-21.398,20.841-45.943,40.667-60.477
		c17.484-12.798,41.47-18.148,61.997-9.125c8.241,3.619,15.253,8.903,20.394,15.416c-0.592,0.657-1.062,1.172-1.372,1.507
		c6.346,10.65,9.846,20.773,9.846,29.026c0,1.339-0.093,2.576-0.268,3.726c-0.007-0.019-0.011-0.046-0.011-0.072
		c-1.366-20.004-12.33-37.943-31.84-45.023c-18.097-6.556-39.167-5.034-54.955,6.629c-17.657,13.061-26.96,32.764-36.242,52.051
		c-0.356,0.735-0.708,1.472-1.055,2.207c-1.687,1.633-3.44,3.336-5.242,5.101c-3.984,8.775-6.852,15.962-7.988,19.232
		c-3.147,9.092-10.143,42.33-10.143,42.33s15.405-14.34,37.433-13.991c22.049,0.349,69.29,17.834,91.669,17.485
		c22.398-0.35,28.34-8.045,28.34-8.045s0.303,0.521,1.07,1.313c-9.083,6.728-20.368,9.843-31.652,9.843
		C260.597,821.25,258.521,821.144,256.457,820.935"/>
	<path style="clip-path:url(#SVGID_2_);fill:#989A9C;" d="M367.743,808.504c-23.422,3.696-48.062,15.501-69.708-0.151
		c10.104-8.963,22.241-20.587,22.412-35.009c0.012-0.76-0.77-0.479-1.316,0.03l-1.855-2.217l5.206-18.2
		c0.361-0.118,0.819-0.559,0.762-0.873c-1.175-6.583,0.126-12.578,2.74-18.118c-0.114,3.377,2.687,5.604,11.739,4.287
		c13.531-1.957,13.918-6.886,22.538-8.882c2.193-0.501,10.29-2.5,25.396,20.531c0.846,2.849,1.618,5.593,2.348,8.127
		c3.237,11.189,6.053,22.538,8.834,33.849c2.216,9.061,2.815,18.485,4.834,27.539C394.269,809.602,379.547,806.653,367.743,808.504"
		/>
	<path style="clip-path:url(#SVGID_2_);fill:#989A9C;" d="M283.897,731.31c1.767-11.728-1.089-22.431-7.174-31.174
		c0.326-0.296,0.652-0.591,0.979-0.887c16.994-15.648,27.499-39.954,34.44-61.51c6.955-21.612,8.219-43.953,8.366-66.413
		c12.441-16.765,21.336-36.279,18.945-57.245c29.785,5.371,59.854,22.812,76.405,48.004c0.873,1.347,2.956-1.259,2.972-2.132
		c0.053-1.837,3.114-4.933,3.899-7.031c1.716-4.546,2.186-9.318,2.221-14.126c0.071-11.311-1.992-22.765-4.353-33.795
		c-2.147-10.002-5.564-19.243-9.857-27.972c3.486,4.214,5.52,6.71,5.52,6.71s-0.345-1.466-1.118-4.096
		c6.56,15.67,11.401,30.591,12.782,41.616c4.387,35.107-11.105,53.517-11.105,53.517S395.017,549.06,384.771,541
		c-10.229-8.043-40.212-19.005-40.212-19.005l-1.908,13.321c20.808,29.024,52.225,63.694,81.615,59.796
		c38.079-5.037,55.984-51.684,62.298-73.241c-2.413,3.429-5.247,7.728-6.734,11.104c-2.918,6.571-8.04,10.226-8.04,10.226
		s1.468-17.553,1.468-29.982c0-6.147-0.899-14.088-1.808-20.546l0.688,2.395c0.236,0.803,0.812,0.891,1.461,0.615
		c1.097,11.601,1.244,23.243,0.743,35.194c-0.071,1.729,2.221,0.646,2.797,0.088c6.249-5.871,11.903-12.083,17.34-18.64
		c-3.516,14.057-8.612,27.779-14.282,40.773c-13.602,31.157-32.972,57.451-55.98,82.28c-21.137,22.815-46.894,39.215-69.798,59.935
		c-14.984,13.568-36.54,35.283-32.347,57.468c0.039,0.209,0.21,0.239,0.409,0.176l-5.206,18.2L283.897,731.31 M321.373,705.122
		l0.054-0.106L321.373,705.122"/>
	<path style="clip-path:url(#SVGID_2_);" d="M322.072,752.781c-4.193-22.185,17.362-43.899,32.347-57.468
		c22.904-20.72,48.661-37.119,69.798-59.935c23.009-24.829,42.379-51.123,55.98-82.28c5.67-12.994,10.767-26.717,14.282-40.773
		c0.816-0.985,1.628-1.974,2.433-2.973c0.015-0.016,0.026-0.03,0.039-0.047c-3.893,14.625-11.079,40.822-14.2,47.062
		c-4.386,8.778-34.354,55.563-43.133,65.076c-5.559,6.014-22.275,22.605-37.118,36.368l0.629,0.087c0,0-5.438,4.739-12.586,10.7
		c-0.789,0.683-1.556,1.347-2.311,1.992l-0.068-0.017c-6.644,5.491-14.301,11.661-20.367,16.017
		c-3.445,2.462-6.522,4.963-9.197,7.342c-0.668,0.489-1.328,0.998-1.978,1.536c-4.326,3.483-7.807,6.648-10.598,9.437
		c-0.155,0.042-0.311,0.084-0.47,0.13c-1.002,0.28-2.155,1.764-2.391,2.856c-6.128,6.697-7.714,10.571-7.714,10.571
		s-9.267,9.542-9.467,15.503c-2.614,5.54-3.915,11.535-2.74,18.118c0.067,0.368-0.566,0.903-0.933,0.903
		C322.19,752.987,322.1,752.926,322.072,752.781 M275.083,697.932c3.868-4.279,12.923-14.438,15.378-17.984
		c1.768-2.554,6.822-13.656,10.927-22.94c7.293-18.134,14.198-41.175,14.653-57.506c0.19-6.771,0.039-14.413-0.288-22.033
		c1.036-1.3,2.057-2.604,3.069-3.913c0.566-0.735,1.131-1.481,1.685-2.229c-0.147,22.46-1.411,44.801-8.366,66.413
		c-6.941,21.556-17.446,45.861-34.44,61.51c-0.327,0.296-0.652,0.591-0.979,0.887C276.199,699.386,275.652,698.652,275.083,697.932"
		/>
	<path style="clip-path:url(#SVGID_2_);" d="M321.427,705.016l-0.054,0.106L321.427,705.016z"/>
	<path style="clip-path:url(#SVGID_2_);" d="M401.672,819.417c-2.019-9.054-2.618-18.479-4.834-27.539
		c-2.781-11.311-5.597-22.659-8.834-33.849c-0.729-2.534-1.502-5.278-2.348-8.127c2.231,3.403,4.615,7.354,7.155,11.937
		c8.011,26.374,9.357,52.08,9.577,58.588C402.157,820.081,401.918,819.747,401.672,819.417 M345.555,705.035
		c0.159-0.046,0.314-0.088,0.47-0.13c-1.047,1.052-2,2.045-2.86,2.986C343.399,706.799,344.553,705.315,345.555,705.035"/>
	<path style="clip-path:url(#SVGID_2_);" d="M377.935,810.447c-16.452-1.749-33.238,9.44-56.334,9.091
		c-17.587-0.266-24.823-5.604-27.273-8.131c1.043-0.774,2.061-1.594,3.043-2.466c0.218-0.194,0.44-0.391,0.665-0.589
		c21.646,15.652,46.286,3.848,69.708,0.151c12.198-1.915,27.515,1.298,34.646,11.923c0.034,1.024,0.042,1.578,0.042,1.578
		S394.387,812.192,377.935,810.447"/>
	<path style="clip-path:url(#SVGID_2_);fill:#989A9C;" d="M235.494,810.186c-11.312-2.572-22.697-4.725-33.971-7.449
		c-16.068-3.9-31.891-5.736-47.769,0.103c-6.082,2.242-11.276,5.139-16.129,9.309c-0.216-3.795,0.951-7.491,1.987-11.126
		c5.196-18.291,11.456-35.855,19.577-53.04c7.113-6.886,13.052-12.521,16.318-16.11c11.942-13.146,29.878-11.939,57.362,1.207
		c25.776,12.331,47.786,16.403,50.422-0.888c0.083,0.201,0.478-0.091,0.512-0.266c0.032-0.205,0.065-0.409,0.095-0.615
		l35.234,42.064c-0.281,0.258-0.501,0.576-0.52,0.846c-0.679,11.451-11.66,20.614-19.652,27.746
		c-8.691,7.746-18.461,11.854-30.036,12.679c-1.333,0.094-2.669,0.137-4.005,0.137C255.019,814.784,245.059,812.341,235.494,810.186
		"/>
	<path style="clip-path:url(#SVGID_2_);" d="M173.249,800.653c-22.028-0.349-37.433,13.991-37.433,13.991s6.996-33.238,10.143-42.33
		c1.137-3.271,4.004-10.457,7.988-19.232c1.801-1.765,3.555-3.468,5.242-5.101c-8.121,17.185-14.38,34.749-19.577,53.04
		c-1.036,3.635-2.204,7.331-1.987,11.126c4.853-4.17,10.047-7.066,16.129-9.309c15.878-5.839,31.701-4.003,47.769-0.103
		c11.274,2.725,22.659,4.877,33.971,7.449c10.855,2.447,22.219,5.263,33.43,4.459c11.574-0.824,21.345-4.933,30.036-12.679
		c7.992-7.132,18.974-16.295,19.652-27.746c0.053-0.786,1.855-2.03,1.836-0.876c-0.175,14.74-12.852,26.559-23.077,35.598
		c-0.982,0.872-2,1.691-3.043,2.466c-0.767-0.793-1.07-1.313-1.07-1.313s-5.942,7.695-28.34,8.045
		c-0.222,0.004-0.443,0.008-0.671,0.008C241.606,818.143,195.078,800.998,173.249,800.653 M283.29,732.19
		c0.175-1.149,0.268-2.387,0.268-3.726c0-8.253-3.5-18.376-9.846-29.026c0.309-0.335,0.78-0.85,1.372-1.507
		c7.319,9.266,10.844,21.013,8.719,33.993c-0.027,0.133-0.262,0.334-0.406,0.334C283.349,732.259,283.311,732.239,283.29,732.19"/>
	<path style="clip-path:url(#SVGID_2_);" d="M174.937,546.406c0.27-0.078,0.534-0.166,0.792-0.264
		c0.01,0.049,0.018,0.094,0.027,0.144l-1.131,0.565C174.729,546.703,174.833,546.552,174.937,546.406"/>
	<path style="clip-path:url(#SVGID_2_);fill:#4E7475;" d="M175.592,545.454c0.046,0.229,0.093,0.458,0.137,0.688
		c-0.258,0.098-0.522,0.186-0.792,0.264C175.156,546.089,175.372,545.773,175.592,545.454"/>
	<path style="clip-path:url(#SVGID_2_);fill:#989A9C;" d="M112.875,602.542c-3.158-0.856-5.106-3.709-6.34-7.154
		c2.076,3.217,5.024,4.283,9.192,0.215c12.446-12.135,19.618-28.325,22.1-43.902c2.5-15.56-1.559-25.527-1.559-25.527
		s-12.446-3.428-18.987-3.428c-3.947,0-7.551,0.347-9.79,0.621c0.591-3.368,1.245-6.717,1.966-10.059
		c3.348-0.217,6.726-0.143,10.121,0.102c0.241,0.303,0.655,0.499,1.288,0.524c2.631,0.114,5.276,0.265,7.909,0.472
		c2.487,0.337,4.981,0.708,7.477,1.066c0.286,0.044,0.593-0.02,0.896-0.147c16.347,2.356,30.951,8.302,36.825,24.425
		c-8.34,12.45-17.201,24.567-26.601,36.2c-6.028,7.458-19.815,26.948-31.796,26.948
		C114.666,602.897,113.764,602.783,112.875,602.542"/>
	<path style="clip-path:url(#SVGID_2_);" d="M105.763,600.271c-3.427-7.153-4.039-26.158-4.039-26.158s0.689,14.881,4.812,21.274
		c1.233,3.445,3.182,6.298,6.34,7.154c12.537,3.394,28.012-18.567,34.499-26.593c9.4-11.633,18.261-23.75,26.601-36.2
		c0.649,1.777,1.188,3.672,1.617,5.705c-0.323,0.468-0.642,0.93-0.966,1.397l-4.734,2.365c0,0-6.225,9.336-12.134,17.433
		c-5.925,8.094-26.471,29.881-31.454,33.306c-2.945,2.035-8.423,4.287-13.105,4.287
		C109.989,604.242,107.155,603.186,105.763,600.271 M107.444,513.475c0.672-0.065,1.34-0.124,2.015-0.167
		c-0.721,3.342-1.375,6.69-1.966,10.059c-1.466,0.176-2.345,0.325-2.345,0.325L107.444,513.475"/>
	<path style="clip-path:url(#SVGID_2_);fill:#989A9C;" d="M463.002,171.703c-0.079-1.879-0.196-4.398-0.301-7.368
		c5.408,3.189,18.415,9.228,29.369,1.474c14.217-10.071,12.836-35.053,9.372-43.728c-2.136-5.325-4.14-10.385-5.369-13.5
		c11.151,9.824,18.308,27.26,23.517,39.324c2.821,6.535,5.145,13.139,7.021,19.834c-8.672,5.778-21.905,9.265-28.929,10.974
		c-3.46,0.842-6.837,1.244-10.12,1.244C478.615,179.958,470.366,176.966,463.002,171.703"/>
	<path style="clip-path:url(#SVGID_2_);" d="M460.601,169.879l-0.455-7.2c0,0,0.938,0.699,2.556,1.655
		c0.104,2.97,0.222,5.489,0.301,7.368C462.19,171.122,461.39,170.512,460.601,169.879 M519.59,147.906
		c-5.209-12.064-12.365-29.5-23.517-39.324c-0.773-1.957-1.241-3.146-1.241-3.146s12.503,11.103,18.395,22.555
		c4.963,9.618,13.341,31.219,15.898,37.896c-0.783,0.642-1.624,1.259-2.515,1.854C524.734,161.045,522.411,154.44,519.59,147.906"/>
	<path style="clip-path:url(#SVGID_2_);fill:#989A9C;" d="M365.767,399.17c-2.596-1.766-5.781-1.939-9.335-0.937
		c-3.346-5.059-6.829-10.026-10.737-14.694c-11.276-13.482-27.868-22.66-43.114-30.949c-14.745-8.021-32.018-16.348-49.843-21.659
		l2.182-1.622c9.233,1.34,22.935,3.986,33.968,8.857c11.596,5.123,29.271,6.486,29.271,6.486s-12.555,0.647,25.914,29.987
		c48.19,36.751,66.639,89.963,71.07,105.003C400.818,445.438,378.311,407.681,365.767,399.17"/>
	<path style="clip-path:url(#SVGID_2_);fill:#989A9C;" d="M245.913,329.058c-0.911-0.625-1.396-0.959-1.396-0.959
		s4.189,0.311,10.402,1.212l-2.182,1.622C250.468,330.256,248.195,329.631,245.913,329.058"/>
	<path style="clip-path:url(#SVGID_2_);fill:#7A7B7E;" d="M410.74,477.029c-9.145-18.589-22.267-34.878-35.568-51.353
		c-6.97-8.646-12.627-18.202-18.74-27.443c3.554-1.002,6.739-0.83,9.335,0.937c12.544,8.511,35.052,46.268,49.375,80.473
		c0.773,2.63,1.118,4.096,1.118,4.096S414.227,481.243,410.74,477.029"/>
	<path style="clip-path:url(#SVGID_2_);fill:#989A9C;" d="M433.532,377.968c1.886,1.322,3.846,2.664,5.84,3.755
		c2.516,8.59,4.929,17.216,7.433,25.802c4.074,13.984,8.135,27.969,12.186,41.958C452.499,430.312,442.57,401.585,433.532,377.968"
		/>
	<path style="clip-path:url(#SVGID_2_);fill:#989A9C;" d="M433.532,377.968c-1.845-4.819-3.649-9.428-5.384-13.697
		c-8.26-20.35-16.828-26.567-23.138-27.852c1.995-0.934,3.973-1.909,5.935-2.901c2.636-1.338,5.152-2.775,7.568-4.31
		c6.193,11.354,11.69,23.14,15.614,35.324c1.828,5.702,3.559,11.439,5.244,17.191C437.378,380.631,435.418,379.29,433.532,377.968"
		/>
	<path style="clip-path:url(#SVGID_2_);fill:#6AC3C3;" d="M439.636,311.088c6.175-7.351,10.208-15.499,12.863-24.316
		c0.183,5.832,0.646,20.5-3.211,22.162c-2.803,1.203-6.866,2.149-9.48,2.681L439.636,311.088 M456.51,265.556
		c1.018-9.789,1.124-20.937-0.944-31.403c2.648-8.917,4.504-17.656,4.614-27.064c0.144-10.924-1.686-21.838-2.815-32.73
		c9.99,7.796,21.039,10.803,33.158,9.688c0.064,6.778,0.022,29.711-3.188,39.916c-3.813,12.044-10.16,25.997-8.887,29.161
		c1.261,3.183,5.073,10.159,4.443,12.694c-0.645,2.537-5.069-1.276-8.252-3.81c-3.164-2.538-8.863-3.167-3.795,4.439
		c5.069,7.604,5.069,13.325-0.648,12.678c-5.699-0.632-9.509-1.908-9.509-1.908s3.81,1.908,1.274,4.44
		c-1.945,1.946-6.51,0.905-8.525,1.756C454.908,277.714,455.869,271.753,456.51,265.556"/>
	<path style="clip-path:url(#SVGID_2_);" d="M479.436,368.106c10.964-10.338,35.37-36.759,51.014-79.47
		c14.267-38.972,15.212-78.628,13.305-98.28c-1.906-19.651-5.071-32.325-5.071-32.325s-2.534,7.605-17.115,13.933
		c-14.582,6.349-31.067,10.158-31.067,10.158s0.011,0.699,0.022,1.925c-12.119,1.115-23.168-1.892-33.158-9.688
		c1.13,10.893,2.959,21.807,2.815,32.73c-0.11,9.408-1.966,18.146-4.614,27.064c-0.425-2.14-0.938-4.251-1.552-6.319
		c4.17-19.815-0.482-38.546-1.874-58.616c-0.106-1.591,2.709-4.562,4.265-3.059c11.397,11.083,25.456,16.401,41.277,12.555
		c10.215-2.484,33.553-8.726,36.91-20.316c0.524-1.804,2.309-3.429,4.266-3.078c0.508,0.086,0.998,0.191,1.505,0.28
		c0.349,0.12,0.574,0.365,0.717,0.714c17.245,74.49-3.872,161.032-60.486,213.814C480.209,369.455,479.822,368.781,479.436,368.106"
		/>
	<path style="clip-path:url(#SVGID_2_);fill:#6AC3C3;" d="M227.362,572.068c-7.635-3.59-16.216-9.718-20.579-12.993
		c-2.411-7.832-3.679-15.942-3.832-23.387c18.118,11.728,38.666,23.779,59.896,24.583c-5.816,5.257-12.132,9.989-18.758,14.187
		c-1.078,0.247-2.65,0.492-4.625,0.492C236.317,574.95,232.155,574.323,227.362,572.068"/>
	<path style="clip-path:url(#SVGID_2_);" d="M198.323,531.978c0.017-1.557,2.219-4.25,4.003-3.409
		c21.129,9.939,41.5,26.9,64.702,27.742c-1.36,1.353-2.754,2.671-4.18,3.961c-21.23-0.804-41.779-12.855-59.896-24.583
		c0.152,7.444,1.42,15.555,3.832,23.387c-1.801-1.352-2.885-2.219-2.885-2.219s5.073,13.307,7.605,17.118
		c2.538,3.794,8.884,12.675,8.884,12.675s0.078-0.007,0.225-0.028c-0.712,0.287-1.426,0.563-2.145,0.833
		C204.995,572.902,198.105,549.488,198.323,531.978"/>
	<path style="clip-path:url(#SVGID_2_);fill:#6AC3C3;" d="M162.071,609.912c-4.226-4.231-7.949-8.795-10.885-13.38
		c5.715,0.009,11.903,1.279,17.239,1.447c6.557,0.212,13.236-0.192,19.74-1.047c13.078-1.716,25.544-5.159,37.678-10.264
		c22.676-9.53,42.591-25.824,57.328-45.406c6.471-8.591,11.469-18.335,13.791-28.483c4.502-10.03,10.525-24.771,10.916-32.658
		c0.646-12.676-13.305-24.724-26-33.605c-12.675-8.863-20.913-14.581-20.913-19.021c0-3.726,1.354-9.719,1.78-11.52
		c0.467-0.528,0.129-0.528,0.129-0.528s-0.049,0.192-0.129,0.528c-0.433,0.493-1.563,1.446-4.311,3.282
		c-5.718,3.812-7.624-2.535-9.512-11.417c-1.904-8.881-7.605-16.487-7.605-16.487s1.258,2.535,1.888,9.514
		c0.647,6.974,3.18,13.95-0.63,13.95s-10.142-6.345-15.859-17.747c-5.7-11.417-12.044-13.321-12.044-13.321
		s5.717,16.485,8.25,21.557c2.535,5.072,5.7,9.511,3.167,11.416c-2.536,1.907-5.7-4.439-10.142-8.25
		c-4.443-3.796-15.228-6.331-15.228-6.331s-26.628,40.58-32.958,52.627c-2.188,4.151-7.682,12.062-13.947,20.65l63.145-144.758
		c0.947,0.018,2.033-0.686,2.807-1.589c25.29,1.954,51.834,14.283,73.128,24.971c15.665,7.868,31.806,17.204,44.376,29.565
		c10.612,10.458,17.765,24.06,25.911,36.367c8.621,13.043,19.652,24.18,28.605,36.997c8.916,12.799,15.454,26.944,20.439,41.681
		c3.005,8.901,4.474,18.324,5.646,27.628c0.341,2.688,0.989,6.665,1.392,10.927c-2.102-2.018-4.773-4.68-6.762-6.994
		c-3.794-4.423-29.792-18.375-38.675-22.188c-8.879-3.794-41.209-8.233-40.58-4.439c0.63,3.81-1.904,26.628-13.32,45.668
		c-11.401,19.006-45.006,48.813-77.981,64.673c-8.861,4.258-19.042,5.813-29.207,5.813
		C191.788,619.735,170.94,613.118,162.071,609.912"/>
	<path style="clip-path:url(#SVGID_2_);" d="M194.212,636.533c-20.387-4.493-42.084-21.104-51.051-40.25
		c-1.034-2.22,3.252-6.31,5.243-4.439c4.845,4.58,17.958,4.073,24.32,4.022c6.399-0.054,12.818-0.335,19.145-1.42
		c9.815-1.646,19.503-4.124,28.744-7.825c1.11-0.154,6.143-0.974,11.192-3.781c5.7-3.164,13.934-8.865,13.934-8.865
		s-0.581,0.24-1.648,0.483c14.185-8.984,26.939-20.417,36.423-34.211c13.672-19.879,20.018-43.988,4.719-64.951
		c-12.016-16.449-28.821-26.57-47.186-34.477c-9.562,39.616-35.319,73.927-58.134,106.807c-0.77,1.138-3.5,2.728-3.847,0.454
		c-3.439-22.51-20.014-30.032-38.916-32.756c0.54-0.234,1.071-0.693,1.464-1.222l4.389,0.847c0,0,0.66-0.43,1.387-1.037
		c6.477,1.422,16.458,4.542,23.37,9.97c8.863,6.977,10.141,22.188,10.141,22.188s8.235-9.512,11.416-13.951
		c3.164-4.442,24.725-37.397,31.071-49.462c6.327-12.048,16.485-44.375,16.485-44.375s25.355,8.883,46.911,31.067
		c21.558,22.189,8.252,53.906,8.252,53.906s2.182-4.364,4.925-10.476c-2.322,10.148-7.319,19.893-13.791,28.483
		c-14.737,19.582-34.651,35.876-57.328,45.406c-12.134,5.104-24.6,8.548-37.678,10.264c-6.504,0.854-13.183,1.259-19.74,1.047
		c-5.336-0.168-11.524-1.438-17.239-1.447c2.937,4.585,6.659,9.148,10.885,13.38c-2.838-1.028-4.451-1.704-4.451-1.704
		s5.7,7.624,10.14,11.417c4.439,3.811,23.447,12.692,36.77,15.212c13.321,2.534,43.113-5.699,53.255-10.143
		c10.16-4.426,34.881-24.096,43.762-33.602c8.865-9.512,27.26-37.418,31.698-48.188c4.44-10.787,3.81-31.717,3.81-31.717
		s10.143,1.908,17.75,3.813c7.604,1.903,20.3,9.51,29.793,15.856c9.526,6.328,32.976,27.258,32.976,27.258l5.069-17.746
		c0,0-1.452-1.311-3.381-3.163c-0.402-4.262-1.051-8.238-1.392-10.927c-1.173-9.304-2.642-18.727-5.646-27.628
		c-4.985-14.736-11.523-28.882-20.439-41.681c-8.953-12.817-19.984-23.954-28.605-36.997c-8.146-12.308-15.299-25.909-25.911-36.367
		c-12.57-12.361-28.711-21.698-44.376-29.565c-21.293-10.688-47.838-23.017-73.128-24.971c1.09-1.276,1.56-2.955,0.15-3.58
		c-0.125-0.057-0.256-0.113-0.393-0.174c28.733,0.521,59.202,14.294,83.06,27.273c15.246,8.29,31.838,17.467,43.114,30.949
		c11.05,13.2,18.69,28.758,29.478,42.137c19.549,24.212,38.71,48.026,45.426,79.324c2.36,11.03,4.424,22.484,4.353,33.795
		c-0.035,4.808-0.505,9.58-2.221,14.126c-0.785,2.099-3.847,5.194-3.899,7.031c-0.016,0.873-2.099,3.479-2.972,2.132
		c-16.551-25.192-46.62-42.633-76.405-48.004c2.497,21.901-7.321,42.222-20.63,59.474c-14.214,18.43-31.037,36.156-51.281,47.96
		c-16.939,9.854-36.616,16.824-56.392,16.824C205.494,638.339,199.824,637.77,194.212,636.533 M120.868,513.934
		c-0.633-0.025-1.047-0.222-1.288-0.524c3.054,0.224,6.12,0.582,9.197,0.996C126.145,514.198,123.499,514.048,120.868,513.934"/>
	<path style="clip-path:url(#SVGID_2_);fill:#6AC3C3;" d="M476.498,480.295c0.434-16.463,0.626-32.933,0.642-49.393
		c0.004-0.905,0.008-1.816,0.011-2.729c2.781,7.349,9.111,24.42,11.44,33.571c4.136,16.202,5.961,37.461,6.5,44.853
		c-5.247,7.033-10.784,13.512-16.961,19.639C478.615,510.967,478.407,495.489,476.498,480.295"/>
	<path style="clip-path:url(#SVGID_2_);" d="M474.343,530.877c0.501-11.951,0.354-23.594-0.743-35.194
		c1.146-0.489,2.505-2.126,2.527-2.975c0.141-4.136,0.262-8.271,0.371-12.413c1.909,15.194,2.117,30.672,1.632,45.941
		c6.177-6.127,11.714-12.605,16.961-19.639c0.125,1.702,0.182,2.668,0.182,2.668s2.763-4.861,6.557-8.67
		c3.81-3.795,6.31-7.083,6.31-7.083s3.9-27.59,2.623-30.755c-1.261-3.163-2.413-15.771-3.67-23.376
		c-1.279-7.624-11.141-35.143-14.722-42.312c-8.795-17.597-13.822-23.644-16.187-25.72c-0.008-0.087-0.019-0.172-0.028-0.257
		c0.883-0.773,1.986-1.768,3.28-2.986c13.686,23.742,25.069,47.764,30.312,74.93c2.045,10.544,3.601,22.327,2.375,33.079
		c-0.417,3.653-1.188,7.187-1.973,10.771c-0.335,1.503,0.019,4.756-1.052,4.231c0.615,0.297,0.823,0.927,0.63,1.576
		c-1.59,5.277-9.212,12.201-12.816,16.659c-6.189,7.658-12.586,14.862-19.772,21.612c-0.345,0.332-1.293,0.852-1.996,0.852
		C474.672,531.814,474.312,531.575,474.343,530.877"/>
	<path style="clip-path:url(#SVGID_2_);fill:#6AC3C3;" d="M132.513,407.438c9.736-18.793,22.936-35.755,37.378-51.141
		c7.133-7.605,14.826-14.705,22.8-21.418c2.901-2.448,5.367-5.298,8.321-7.693c2.975-2.377,12.24,1.976,15.318,3.341
		c0.195,0.085,0.408,0.126,0.625,0.132l-63.145,144.758c-9.566,13.115-20.925,27.806-25.043,33.102
		c-4.145-0.109-7.726-0.019-10.156,0.017c-7.736-0.572-15.312-0.06-22.943,2.943C111.137,477.954,115.427,440.421,132.513,407.438"
		/>
	<path style="clip-path:url(#SVGID_2_);" d="M88.835,515.856c10.79-20.839,15.666-43.955,22.434-66.264
		c6.067-19.985,13.795-39.234,25.122-56.876c11.91-18.499,26.139-35.598,42.296-50.546c7.134-6.592,14.303-14.635,22.535-19.792
		c4.636-2.901,14.407,1.226,18.691,3.112c2.64,1.17-1.31,6.032-3.582,5.037c-3.078-1.366-12.344-5.719-15.318-3.341
		c-2.955,2.395-5.42,5.246-8.321,7.693c-7.974,6.713-15.667,13.812-22.8,21.418c-14.442,15.386-27.643,32.347-37.378,51.141
		c-17.086,32.982-21.376,70.516-36.844,104.041c7.632-3.003,15.208-3.516,22.943-2.943c-0.971,0.015-1.758,0.019-2.325-0.004
		c-3.657-0.124-7.361,1.187-4.441,1.589l9.929,0.736l16.839,3.245c-0.616,0.823-1.562,1.483-2.36,1.369
		c-15.37-2.218-30.669-4.825-45.021,2.782c-0.402,0.211-0.786,0.306-1.131,0.306C88.85,518.56,88.096,517.308,88.835,515.856"/>
	<path style="clip-path:url(#SVGID_2_);" d="M121.775,510.857l-9.929-0.736c-2.92-0.402,0.785-1.713,4.441-1.589
		c1.987,0.076,6.681-0.166,12.481-0.013c-1.014,1.304-1.589,2.04-1.589,2.04s7.605,1.905,12.676,2.537
		c1.125,0.142,2.687,0.41,4.534,0.815c-0.727,0.607-1.387,1.037-1.387,1.037L121.775,510.857"/>
	<path style="clip-path:url(#SVGID_2_);fill:#FFFFFF;" d="M201.658,320.107c0,0,64.546,7.36,109.279,35.108
		c44.732,27.745,74.176,66.247,83.237,86.065c9.057,19.817,24.913,61.715,24.913,61.715s-57.192-42.465-79.839-56.054
		c-24.398-14.64-39.068-30.01-67.379-50.396l32.274-19.25l-50.396,4.529c0,0-21.517-27.177-32.272-37.936
		c-10.759-10.759-21.518-20.383-21.518-20.383L201.658,320.107z"/>
	<path style="clip-path:url(#SVGID_2_);" d="M200.696,322.138c52.513,6.1,102.63,25.359,142.657,60.244
		c19.617,17.1,38.827,38.094,49.663,62.04c8.872,19.609,16.498,39.844,24.12,59.967c1.226-1.042,2.455-2.081,3.682-3.12
		c-18.456-13.702-37.083-27.188-55.966-40.294c-12.781-8.869-26.255-16.712-38.953-25.677
		c-18.003-12.717-34.457-27.524-52.298-40.482c-0.391,1.071-0.784,2.141-1.174,3.212c10.759-6.417,21.515-12.833,32.274-19.25
		c0.836-0.497,2.569-3.702,0.404-3.508c-8.398,0.754-16.796,1.51-25.196,2.265c-5.774,0.519-11.55,1.038-17.325,1.557
		c-1.675,0.151-7.573,0.413-7.19,0.895c-7.717-9.735-15.613-19.337-23.776-28.701c-5.896-6.762-12.276-13.007-18.771-19.191
		c-3.065-2.92-6.181-5.791-9.31-8.645c-2.181-1.991-1.559-0.369-0.095-3.301c1.44-2.877-2.632-1.958-3.57-0.075
		c-0.567,1.133-1.135,2.265-1.7,3.398c-0.249,0.496-0.43,1.335,0.052,1.77c11.643,10.449,22.854,21.287,33.074,33.136
		c5.02,5.822,9.897,11.773,14.742,17.738c1.442,1.778,4.06,6.809,6.318,7.665c1.772,0.669,5.135-0.346,6.932-0.507
		c5.602-0.503,11.204-1.006,16.805-1.509c9.027-0.812,18.057-1.624,27.085-2.434c0.135-1.17,0.268-2.34,0.402-3.509
		c-10.755,6.417-21.516,12.833-32.272,19.25c-0.696,0.416-2.253,2.426-1.174,3.211c17.074,12.398,32.998,26.249,49.958,38.787
		c12.669,9.366,26.467,17.171,39.453,26.099c19.55,13.446,38.755,27.425,57.808,41.567c1.553,1.151,4.321-1.438,3.682-3.124
		c-7.626-20.136-15.37-40.287-24.12-59.965c-10.832-24.373-30.464-45.2-50.1-62.724c-39.886-35.598-91.472-54.713-144.198-60.839
		C200.769,317.864,198.144,321.84,200.696,322.138"/>
	<path style="clip-path:url(#SVGID_2_);fill:#FFFFFF;" d="M451.281,406.739c-4.283-14.757-8.533-29.511-13.01-44.197
		c-3.791-12.427-9.41-24.467-15.755-36.025c3.878-2.756,7.532-5.8,11.104-9.146c6.469,4.952,12.938,9.904,19.41,14.853
		c1.692,1.294,3.368,2.588,5.059,3.882c-0.508,1.233-1.024,2.475-1.529,3.704c-2.516,6.067-5.035,12.134-7.551,18.202
		c-0.421,1.014-0.121,2.448,1.31,2.011c5.684-1.783,11.367-3.584,17.048-5.368c3.376-1.049,1.415-1.207,1.991,1.591
		c0.717,3.375,1.104,6.821,1.473,10.247c1.852,16.907,2.007,34.042,2.2,51.018c0.213,20.812,0.012,41.646-0.526,62.457
		C465.461,455.547,458.389,431.136,451.281,406.739"/>
	<path style="clip-path:url(#SVGID_2_);" d="M472.139,495.067c-8.393-29.197-16.839-58.379-25.334-87.542
		c-4.178-14.336-8.112-28.778-12.677-42.993c-3.924-12.184-9.421-23.97-15.614-35.324c1.365-0.866,2.699-1.761,4.003-2.692
		c6.345,11.558,11.964,23.598,15.755,36.025c4.477,14.687,8.727,29.44,13.01,44.197c7.107,24.397,14.18,48.808,21.223,73.227
		c0.538-20.812,0.739-41.646,0.526-62.457c-0.193-16.976-0.349-34.111-2.2-51.018c-0.368-3.425-0.756-6.871-1.473-10.247
		c-0.576-2.797,1.385-2.64-1.991-1.591c-5.681,1.784-11.364,3.585-17.048,5.368c-1.431,0.437-1.73-0.997-1.31-2.011
		c2.516-6.067,5.035-12.135,7.551-18.202c0.505-1.229,1.021-2.471,1.529-3.704c-1.69-1.294-3.366-2.588-5.059-3.882
		c-6.473-4.949-12.941-9.901-19.41-14.853c0.409-0.387,0.821-0.777,1.229-1.17c3.115,2.058,10.453,6.947,12.935,8.922
		c3.165,2.536,5.456,4.966,7.991,5.596c2.534,0.629,4.003,3.602,4.003,3.602s-4.405,13.987-2.797,9.599
		c0.175-0.489,2.03-4.002-5.998,13.584c0,0,15.79-6.049,19.582-4.79c3.813,1.276,3.198,20.388,3.198,20.388s0.259-0.2,0.736-0.597
		v11.697c0,3.796,0.087,11.522,0.523,19.967c0.523,9.983,0.789,20.493,0.789,20.493s0.513,1.327,1.339,3.512
		c-0.003,0.912-0.007,1.823-0.011,2.729c-0.019,20.598-0.314,41.209-1.013,61.806c-0.026,1.008-1.93,3.118-3.133,3.118
		C472.609,495.824,472.298,495.608,472.139,495.067 M476.021,371.209c0.045-0.039,0.092-0.078,0.135-0.117
		c0.01,0.085,0.021,0.17,0.028,0.257C476.127,371.3,476.073,371.254,476.021,371.209"/>
	<path style="clip-path:url(#SVGID_2_);fill:#989A9C;" d="M437.987,314.596c-0.127-0.4-0.258-0.8-0.39-1.196
		c0.499-0.541,0.984-1.086,1.459-1.637c0.235-0.044,0.485-0.095,0.751-0.149l1.89,5.82
		C440.461,316.488,439.224,315.542,437.987,314.596"/>
	<path style="clip-path:url(#SVGID_2_);fill:#989A9C;" d="M437.108,313.922c0.165-0.175,0.328-0.35,0.489-0.522
		c0.132,0.396,0.263,0.796,0.39,1.196C437.694,314.371,437.402,314.146,437.108,313.922"/>
	<path style="clip-path:url(#SVGID_2_);fill:#649D9B;" d="M472.561,350.423c-0.159-0.595-0.982-0.735-1.473-0.578
		c-4.306,1.358-8.613,2.707-12.916,4.057l-2.868-2.394c2.304-5.544,4.599-11.095,6.905-16.646c0.192-0.473,0.471-1.364-0.053-1.765
		c-6.82-5.221-13.641-10.443-20.459-15.663l-1.89-5.82c2.614-0.532,6.678-1.479,9.48-2.681c3.856-1.661,3.394-16.33,3.211-22.162
		c0.335-1.108,0.646-2.228,0.938-3.357c2.016-0.851,6.58,0.19,8.525-1.756c2.535-2.533-1.274-4.44-1.274-4.44
		s3.81,1.275,9.509,1.908c5.718,0.646,5.718-5.074,0.648-12.678c-5.068-7.605,0.631-6.977,3.795-4.439
		c3.183,2.534,7.607,6.347,8.252,3.81c0.63-2.536-3.183-9.512-4.443-12.694c-1.273-3.164,5.073-17.117,8.887-29.161
		c3.21-10.205,3.252-33.138,3.188-39.916c3.737-0.344,7.573-1.08,11.516-2.187c12.085-3.414,28.236-8.13,35.146-19.303
		c2.65,6.433,3.57,24.349,3.946,28.324c1.015,10.63,1.015,21.348,0.488,32.013c-1.152,22.887-6.66,45.179-14.388,66.669
		c-10.899,30.254-27.409,57.19-50.863,78.455c-0.177,0.126-0.348,0.269-0.511,0.418
		C475.121,362.302,474.062,356.272,472.561,350.423"/>
	<path style="clip-path:url(#SVGID_2_);" d="M479.428,368.099c-0.641-1.115-1.965-0.862-3.06-0.082
		c23.454-21.264,39.964-48.2,50.863-78.455c7.728-21.49,13.235-43.782,14.388-66.669c0.526-10.665,0.526-21.383-0.488-32.013
		c-0.376-3.975-1.296-21.892-3.946-28.324c-6.91,11.172-23.062,15.889-35.146,19.303c-3.942,1.107-7.778,1.843-11.516,2.187
		c-0.012-1.227-0.022-1.925-0.022-1.925s16.485-3.81,31.067-10.158c14.581-6.327,17.115-13.933,17.115-13.933
		s3.165,12.674,5.071,32.325c1.907,19.652,0.962,59.308-13.305,98.28c-15.644,42.711-40.05,69.132-51.014,79.47
		C479.431,368.104,479.431,368.103,479.428,368.099"/>
	<path style="clip-path:url(#SVGID_2_);fill:#649D9B;" d="M455.304,351.509l2.868,2.394c-1.483,0.466-2.963,0.93-4.44,1.396
		C454.257,354.037,454.78,352.774,455.304,351.509"/>
	<path style="clip-path:url(#SVGID_2_);" d="M475.857,368.436c1.153-1.08,2.827-1.634,3.57-0.336
		c0.003,0.003,0.003,0.005,0.008,0.007c-1.294,1.219-2.397,2.213-3.28,2.986C476.062,370.203,475.963,369.321,475.857,368.436"/>
	<path style="clip-path:url(#SVGID_2_);" d="M470.564,352.713c-3.792-1.259-19.582,4.79-19.582,4.79
		c8.028-17.586,6.173-14.074,5.998-13.584c-1.608,4.388,2.797-9.599,2.797-9.599s-1.469-2.973-4.003-3.602
		c-2.535-0.63-4.826-3.06-7.991-5.596c-2.481-1.975-9.819-6.865-12.935-8.922c0.028-0.027,0.057-0.054,0.084-0.08
		c0.751-0.725,1.476-1.457,2.176-2.199c8.35,6.392,16.696,12.783,25.048,19.175c0.523,0.401,0.245,1.292,0.053,1.765
		c-2.832,6.817-5.649,13.634-8.478,20.437c5.776-1.82,11.567-3.629,17.356-5.453c0.49-0.157,1.313-0.017,1.473,0.578
		c1.719,6.692,2.856,13.618,3.595,20.669c-0.043,0.039-0.09,0.078-0.135,0.117c-1.051-0.89-1.521-0.94-1.521-0.94v2.235
		c-0.478,0.396-0.736,0.597-0.736,0.597S474.378,353.99,470.564,352.713"/>
	<path style="clip-path:url(#SVGID_2_);fill:#649D9B;" d="M488.591,461.745c-2.329-9.151-8.659-26.223-11.44-33.571
		c0.114-17.431,0.893-36.022-0.691-53.938c16.954,29.875,30.947,61.154,31.593,96.215c0.087,5.333,0.068,10.877-0.3,16.207
		c-0.103,1.716-0.767,3.567-1.222,5.246c-0.209,0.717,0.262-1.064-0.838,1.258c-2.099,4.443-7.381,9.092-10.438,13.218
		c-0.053,0.075-0.11,0.146-0.163,0.218C494.552,499.206,492.727,477.947,488.591,461.745"/>
	<path style="clip-path:url(#SVGID_2_);" d="M495.091,506.598c0.053-0.071,0.11-0.143,0.163-0.218
		c3.058-4.126,8.34-8.774,10.438-13.218c1.1-2.322,0.629-0.541,0.838-1.258c0.455-1.679,1.119-3.53,1.222-5.246
		c0.368-5.33,0.387-10.874,0.3-16.207c-0.646-35.061-14.639-66.34-31.593-96.215c-0.085-0.965-0.177-1.928-0.275-2.886
		c2.364,2.076,7.392,8.124,16.187,25.72c3.581,7.168,13.442,34.688,14.722,42.312c1.257,7.604,2.409,20.213,3.67,23.376
		c1.277,3.165-2.623,30.755-2.623,30.755s-2.5,3.288-6.31,7.083c-3.794,3.809-6.557,8.67-6.557,8.67S495.216,508.3,495.091,506.598"
		/>
	<path style="clip-path:url(#SVGID_2_);" d="M475.812,424.662c0,0-0.266-10.51-0.789-20.493c-0.437-8.444-0.523-16.171-0.523-19.967
		v-11.697c0.375-0.311,0.888-0.742,1.521-1.295c0.053,0.044,0.106,0.091,0.163,0.141c1.946,18.796,1.087,38.454,0.967,56.824
		C476.324,425.989,475.812,424.662,475.812,424.662"/>
	<path style="clip-path:url(#SVGID_2_);" d="M474.499,370.27c0,0,0.471,0.05,1.521,0.94c-0.634,0.554-1.146,0.984-1.521,1.295
		V370.27"/>
	<path style="clip-path:url(#SVGID_2_);fill:#649D9B;" d="M162.897,516.119c-6.897-4.293-15.319-6.137-23.751-7.081l14.666-33.62
		c6.265-8.589,11.76-16.499,13.947-20.65c6.33-12.047,32.958-52.627,32.958-52.627s10.785,2.535,15.228,6.331
		c4.441,3.812,7.606,10.157,10.142,8.25c2.533-1.905-0.632-6.344-3.167-11.416c-2.533-5.072-8.25-21.557-8.25-21.557
		s6.344,1.903,12.044,13.321c5.717,11.401,12.05,17.747,15.859,17.747s1.277-6.977,0.63-13.95c-0.63-6.979-1.888-9.514-1.888-9.514
		s5.701,7.606,7.605,16.487c1.888,8.882,3.794,15.228,9.512,11.417c2.747-1.836,3.878-2.79,4.311-3.282
		c-0.425,1.801-1.78,7.794-1.78,11.52c0,4.44,8.238,10.158,20.913,19.021c12.695,8.882,26.646,20.93,26,33.605
		c-0.391,7.887-6.414,22.628-10.916,32.658c2.483-10.856,1.904-22.179-3.214-33.044c-10.489-22.24-33.811-35.266-55.457-44.34
		c-1.502-0.629-3.373,1.33-3.654,2.64c-8.346,38.614-32.537,71.916-54.812,103.857C177.657,531.075,172.789,522.287,162.897,516.119
		"/>
	<path style="clip-path:url(#SVGID_2_);" d="M167.76,523.882c-6.911-5.428-16.893-8.548-23.37-9.97
		c1.47-1.23,3.199-3.191,0.202-3.791c-1.839-0.362-3.696-0.652-5.537-0.875l0.091-0.208c8.432,0.944,16.854,2.788,23.751,7.081
		c9.891,6.168,14.759,14.956,16.927,25.773c22.275-31.941,46.465-65.243,54.812-103.857c0.281-1.31,2.151-3.269,3.654-2.64
		c21.646,9.074,44.968,22.1,55.457,44.34c5.118,10.865,5.697,22.188,3.214,33.044c-2.743,6.111-4.925,10.476-4.925,10.476
		s13.306-31.717-8.252-53.906c-21.556-22.185-46.911-31.067-46.911-31.067s-10.158,32.327-16.485,44.375
		c-6.347,12.064-27.907,45.02-31.071,49.462c-3.181,4.439-11.416,13.951-11.416,13.951S176.623,530.858,167.76,523.882"/>
	<path style="clip-path:url(#SVGID_2_);fill:#649D9B;" d="M128.769,508.52c4.119-5.296,15.477-19.986,25.043-33.102l-14.757,33.828
		C135.47,508.807,131.954,508.604,128.769,508.52"/>
	<path style="clip-path:url(#SVGID_2_);" d="M139.856,513.097c-5.07-0.632-12.676-2.537-12.676-2.537s0.575-0.736,1.589-2.04
		c4.816,0.128,10.394,0.526,15.823,1.602c2.998,0.6,1.269,2.561-0.202,3.791C142.542,513.507,140.981,513.238,139.856,513.097"/>
	<path style="clip-path:url(#SVGID_2_);fill:#649D9B;" d="M262.873,415.446c0,0,0.338,0-0.129,0.528
		C262.824,415.638,262.873,415.446,262.873,415.446"/>
	<path style="clip-path:url(#SVGID_2_);fill:#649D9B;" d="M206.783,559.075c4.362,3.275,12.943,9.403,20.579,12.993
		c7.796,3.669,13.93,3.027,16.728,2.39c-5.898,3.737-12.042,7.05-18.302,9.938c-1.253,0.577-2.516,1.129-3.788,1.658
		C214.966,578.931,209.913,569.241,206.783,559.075"/>
	<path style="clip-path:url(#SVGID_2_);" d="M211.503,573.975c-2.533-3.812-7.605-17.118-7.605-17.118s1.084,0.867,2.885,2.219
		c3.129,10.166,8.183,19.855,15.217,26.979c-0.461,0.192-0.923,0.383-1.388,0.567c-0.147,0.021-0.225,0.028-0.225,0.028
		S214.041,577.769,211.503,573.975"/>
	<path style="clip-path:url(#SVGID_2_);" d="M225.788,584.396c6.26-2.888,12.404-6.2,18.302-9.938
		c1.068-0.243,1.648-0.483,1.648-0.483s-8.234,5.701-13.934,8.865c-5.049,2.808-10.082,3.627-11.192,3.781
		C222.354,585.925,224.08,585.182,225.788,584.396"/>
	<path style="clip-path:url(#SVGID_2_);fill:#649D9B;" d="M195.333,629.941c-11.517-2.553-23.686-10.438-33.262-20.029
		c13.175,4.762,52.743,17.048,79.873,4.014c32.975-15.859,66.58-45.667,77.981-64.673c11.416-19.04,13.95-41.858,13.32-45.668
		c-0.629-3.794,31.701,0.646,40.58,4.439c8.883,3.813,34.881,17.766,38.675,22.188c1.988,2.314,4.66,4.977,6.762,6.994
		c0.688,7.272,0.664,15.37-2.822,19.327c-9.559-11.856-23.775-23.054-36.145-31.079c-12.745-8.287-27.764-14.616-42.78-16.975
		c-1.541-0.246-3.901,2.079-3.64,3.619c3.896,22.432-6.241,42.396-19.461,59.794c-13.6,17.886-30.177,34.444-49.67,45.789
		c-15.473,9.008-33.015,14.278-50.74,14.278C207.773,631.961,201.526,631.309,195.333,629.941"/>
	<path style="clip-path:url(#SVGID_2_);" d="M204.529,634.837c-13.323-2.52-32.33-11.401-36.77-15.212
		c-4.44-3.793-10.14-11.417-10.14-11.417s1.613,0.676,4.451,1.704c9.577,9.592,21.746,17.477,33.262,20.029
		c23.811,5.264,48.499-0.086,69.411-12.259c19.493-11.345,36.071-27.903,49.67-45.789c13.22-17.397,23.357-37.362,19.461-59.794
		c-0.262-1.54,2.099-3.865,3.64-3.619c15.017,2.358,30.035,8.688,42.78,16.975c12.369,8.025,26.586,19.223,36.145,31.079
		c3.486-3.957,3.511-12.055,2.822-19.327c1.929,1.853,3.381,3.163,3.381,3.163l-5.069,17.746c0,0-23.449-20.93-32.976-27.258
		c-9.493-6.347-22.189-13.953-29.793-15.856c-7.607-1.905-17.75-3.813-17.75-3.813s0.631,20.93-3.81,31.717
		c-4.438,10.77-22.833,38.676-31.698,48.188c-8.881,9.506-33.603,29.176-43.762,33.602c-8.833,3.87-32.578,10.617-47.359,10.617
		C208.238,635.312,206.247,635.163,204.529,634.837"/>
	<path style="clip-path:url(#SVGID_2_);fill:#C7C8CA;" d="M386.519,324.086c16.986-8.18,32.444-24.883,40.811-48.827L423.708,274
		c-7.755,22.228-21.79,37.766-37.09,45.764l2.093-91.64c9.626,0.86,18.086,2.229,25.258,3.739c8.936,1.871,15.86,3.987,20.542,5.613
		c2.023,0.699,3.636,1.318,4.804,1.791c-2.617,3.691-8.006,12.993-15.606,34.733l3.621,1.259
		c5.262-15.106,9.439-24.041,12.271-29.161c1.418-2.554,2.484-4.163,3.183-5.09c0.334-0.473,0.596-0.77,0.752-0.944l0.14-0.175
		l1.461-1.336c0.482,6.664,0.022,14.109-2.071,22.108c-8.306,31.7-20.019,48.308-26.052,56.246
		c-5.031,6.585-20.745,17.608-25.899,21.137c-1.761,0.854-3.441,1.824-4.979,2.992L386.519,324.086 M441.546,240.198
		L441.546,240.198l-0.004,0.005L441.546,240.198 M442.378,238.468l0.826-1.709c-0.16-0.074-20.136-9.439-54.407-12.468l0.635-27.75
		c16.338-1.062,35.245,4.99,47.812,15.636c0.311,0.264,0.61,0.536,0.907,0.812c2.746,5.541,5.998,14.073,6.911,24.643l-1.857-0.873
		l-0.815,1.72L442.378,238.468"/>
	<path style="clip-path:url(#SVGID_2_);" d="M385.926,341.191c1.594-1.237,3.346-2.255,5.187-3.148
		c-1.044,0.714-1.655,1.12-1.655,1.12s26.053-5.278,41.143-21.505c15.104-16.242,24.161-33.604,23.023-60.021
		c-1.12-26.421-3.393-33.222-6.416-38.501c-3.024-5.281-13.217-13.218-13.217-13.218s0.19,0.228,0.49,0.684
		c0.702,1.036,2.106,3.226,3.67,6.388c-0.297-0.276-0.597-0.548-0.907-0.812c-12.711-10.771-31.91-16.837-48.381-15.597
		c-1.469,0.122,0.053-2.395,1.173-2.465c17.624-1.083,42.837,1.731,55.059,16.401c12.076,14.529,13.283,37.065,11.416,55.04
		c-2.015,19.479-7.17,36.663-21.577,50.565c-7.308,7.044-14.915,12.796-23.987,17.397c-5.035,2.552-10.158,4.983-15.508,6.852
		c-2.903,1.014-6.575,0.821-9.304,1.924c-0.137,0.056-0.253,0.082-0.343,0.082C385.254,342.375,385.508,341.522,385.926,341.191"/>
	<path style="clip-path:url(#SVGID_2_);fill:#FFFFFF;" d="M316.426,194.849c-1.241-12.447-3.734-41.067-18.667-47.289
		c-9.956-3.733-14.932,3.731-18.666,12.445c-7.467,12.44-9.956,27.376-9.956,41.063c0,14.935-1.245,23.644,12.441,21.156
		c9.96-1.244,16.18-9.955,23.646-14.934l1.245-1.243"/>
	<path style="clip-path:url(#SVGID_2_);" d="M317.029,194.562c-1.135-14.817-2.239-33.934-12.976-45.299
		c-14.682-15.537-26.55,9.003-30.959,19.674c-4.236,10.26-5.35,21.869-5.501,32.866c-0.087,6.281-1.313,14.675,2.762,20.031
		c8.31,10.915,31.375-10.503,36.469-15.433c0.723-0.697-0.01-1.429-0.707-0.708c-6.174,6.36-28.357,24.99-34.415,11.438
		c-2.117-4.732-1.039-11.752-1.019-16.794c0.048-10.835,1.744-21.196,5.597-31.333c3.314-8.718,8.974-22.735,20.25-19.716
		c5.574,1.49,9.442,8.112,11.79,12.79c5.119,10.199,6.136,21.902,7.502,33.057C315.917,195.899,317.07,195.104,317.029,194.562"/>
	<path style="clip-path:url(#SVGID_2_);" d="M388.836,161.792c0.823-10.323,14.183-15.646,23.065-15.891
		c3.384-0.091,7.147,1.69,9.444,4.14c1.945,2.079,3.237,4.68,4.44,7.226c0.389,0.825,4.369,3.009,3.329,2.047
		c0.451,0.417,1.416-0.5,1.181-1c-2.618-5.531-2.08-12.053-7.858-15.451c-4.447-2.617-9.766-2.206-14.476-0.384
		c-9.091,3.524-21.108,9.792-22.077,20.712C385.729,164.943,388.726,163.132,388.836,161.792"/>
	<path style="clip-path:url(#SVGID_2_);" d="M401.709,194.578c4.235-3.421,7.581-6.182,13.141-4.146
		c1.76,0.644,3.797-1.466,4.169-3.011c0.096-0.41,0.194-0.819,0.292-1.231c-1.418,1.025-2.836,2.049-4.253,3.075
		c4.917,1.103,10.594,3.363,15.602,2.85c0.593-0.061,2.575-1.505,1.56-2.176c-2.454-1.608-5.054-1.781-7.224-4.004
		c-1.302-1.329-5.149-1.391-6.962-1.709c-1.532-0.267-3.495,1.797-3.715,3.175c-0.062,0.401-0.126,0.803-0.19,1.204
		c1.213-1.035,2.425-2.071,3.64-3.107c-7.127,0.08-11.353,3.395-16.594,7.671C400.26,193.914,400.491,195.561,401.709,194.578"/>
	<path style="clip-path:url(#SVGID_2_);" d="M276.59,207.994c-1.465-3.267-2.922-6.562-3.75-10.061
		c-0.853-3.612-1.015-7.34-0.812-11.033c0.229-4.178,0.827-8.493,2.364-12.414c1.188-3.024,3.232-6.249,6.636-6.981
		c6.357-1.371,10.789,5.463,12.722,10.465c1.21,3.136,2.17,6.427,2.777,9.733c0.6,3.273,0.869,6.896-0.618,9.982
		c-2.876,5.95-11.167,7.375-16.771,9.484c-0.725,0.272-1.449,0.548-2.174,0.825"/>
	<path style="clip-path:url(#SVGID_2_);fill:#FFFFFF;" d="M280.405,174.671c1.262-0.667,2.282-2.174,1.645-3.615
		c-0.611-1.366-2.118-1.375-3.134-0.486c-0.877,0.763-1.431,1.945-1.002,3.079C278.31,174.687,279.348,175.231,280.405,174.671"/>
	<path style="clip-path:url(#SVGID_2_);fill:#FFFFFF;" d="M277.821,175.866c-3.159-0.299-3.527,4.828-3.252,6.949
		c0.179,1.36,0.966,2.741,2.533,2.248c1.685-0.528,2.706-2.535,3.028-4.136c0.208-1.043,0.22-2.217-0.251-3.188
		C279.568,177.105,278.593,175.938,277.821,175.866"/>
	<path style="clip-path:url(#SVGID_2_);fill:#C7C8CA;" d="M321.404,197.335c-12.446,2.49-26.132,3.733-38.577,8.712
		c-16.179,6.223-31.113,17.424-36.089,34.844c-4.977,14.934-6.223,39.823-2.491,56.001c4.978,14.932,18.669,23.642,31.113,32.353
		c11.199,7.47,22.399,12.447,37.332,13.689c1.246,0,3.734,1.244,4.979,1.244"/>
	<path style="clip-path:url(#SVGID_2_);" d="M321.494,196.965c-11.781,2.127-23.509,2.182-35.019,5.793
		c-9.336,2.931-18.01,7.554-25.587,13.729c-15.355,12.512-19.734,31.378-21.32,50.255c-0.82,9.747-0.63,20.029,1.389,29.629
		c2.218,10.545,9.905,18.558,17.958,25.192c8.332,6.866,17.792,13.404,27.683,17.784c9.869,4.373,20.113,4.762,30.674,5.673
		c0.61,0.052,1.841-1.35,0.971-1.649c-7.411-2.545-15.037-4.183-22.424-6.93c-9.093-3.383-17.214-9.029-25.084-14.578
		c-7.054-4.975-13.576-10.397-18.824-17.294c-6.205-8.149-6.617-18.616-6.924-28.435c-0.596-19.128,1.875-40.462,15.955-54.591
		c15.314-15.37,39.984-19.731,60.373-23.838C321.662,197.635,322.037,196.868,321.494,196.965"/>
	<path style="clip-path:url(#SVGID_2_);" d="M256.537,162.423c-2.299,7.225-2.299,6.401-3.119,8.371s-0.983,3.781,0.819,0.33
		c1.806-3.448,5.912-11.493,6.731-15.264c0.821-3.778,1.804-6.075,2.46-10.342c0.659-4.271,2.298-7.715,6.896-9.848
		c4.595-2.134,7.551-3.941,8.698-5.911c1.151-1.968-0.163-4.266-0.163-4.266s-1,2.545-3.61,4.266
		c-2.451,1.614-7.16,3.049-7.715,3.45c-2.435,1.736-5.253-0.498-5.253-0.498s0.459,3.728-0.819,6.075
		c-0.987,1.805-6.401,3.286-6.401,3.286s4.109,0.49,3.939,6.238C258.673,159.307,256.537,162.423,256.537,162.423"/>
	<path style="clip-path:url(#SVGID_2_);" d="M393.541,195.852c3.862,0.137,6.241-2.01,8.69-4.82
		c4.39-5.037,11.711-15.158,19.728-11.719c2.858,1.226,4.604-3.445,1.678-4.523c-4.637-1.708-10.48,0.727-14.293,3.384
		c-5.373,3.747-8.093,16.493-15.641,15.963C392.592,194.06,392.437,195.813,393.541,195.852"/>
	<path style="clip-path:url(#SVGID_2_);fill:#3A89C9;" d="M267.521,105.872c0,0,1.734-4.547-2.895-14.222
		c-4.632-9.674-16.373-29.687-28.278-33.653c-11.908-3.971-17.862-0.662-20.838,5.125c-2.976,5.789-4.961,20.921,0.33,26.461
		c5.292,5.538,11.578,5.126,13.728-0.251c2.15-5.373,2.232-11.491,1.072-13.972c-1.155-2.482-2.146-3.804-2.146-3.804
		s-0.165-1.241,3.142-1.076c3.308,0.167,14.141,9.428,14.882,10.585c0.747,1.158,4.796,5.375,4.796,5.375s-5.951-12.737,0.33-6.946
		C257.927,85.281,267.521,105.872,267.521,105.872"/>
	<path style="clip-path:url(#SVGID_2_);fill:#7DA7D9;" d="M242.465,61.8c-3.14-2.397-16.291-9.428-22.325-3.889
		c-6.037,5.541-9.674,15.628-7.11,23.401c2.56,7.774,10.004,7.855,11.988-0.66c1.983-8.519-6.755-17.523-1.904-16.704
		C231.109,65.301,242.465,61.8,242.465,61.8"/>
	<path style="clip-path:url(#SVGID_2_);fill:#FFFFFF;" d="M215.261,69.159c-1.074,5.208-1.57,8.101,0.413,8.266
		c1.986,0.167,2.979-4.959,2.896-7.357c-0.083-2.401-0.164-2.812-0.993-2.978C216.749,66.925,215.261,69.159,215.261,69.159"/>
	<path style="clip-path:url(#SVGID_2_);fill:#FFFFFF;" d="M219.396,62.792c-0.746-0.082-1.737,0.495-1.902,1.241
		c-0.167,0.744-0.332,1.405,0.579,1.737c0.909,0.33,1.732-0.495,1.986-0.993C220.306,64.279,219.396,62.792,219.396,62.792"/>
	<path style="clip-path:url(#SVGID_2_);fill:#3A89C9;" d="M244.947,19.297c-2.979-4.052-10.419-9.51-13.728-5.706
		c-3.306,3.804-6.366,14.057-4.464,17.117c1.9,3.06,4.052,7.192,6.12,5.789c2.066-1.409,3.142-2.979,3.472-4.05
		c0.33-1.079,1.654-2.897,1.654-2.897s3.224-0.66,4.794,1.902c1.573,2.563,2.565,5.127,2.565,5.127s-1.326-7.279,0.082-6.118
		c1.407,1.156,11.332,27.864,11.246,28.11c-0.083,0.249-0.744-12.815-2.563-18.603C252.306,34.182,244.947,19.297,244.947,19.297"/>
	<path style="clip-path:url(#SVGID_2_);fill:#7DA7D9;" d="M241.474,15.576c-2.977-2.397-8.518-4.3-10.833-1.736
		c-2.313,2.563-6.282,11.904-4.297,15.793c1.984,3.885,4.546,6.532,6.779,2.813c2.235-3.724,1.903-11.411,3.472-11.66
		c1.573-0.249,9.346,1.651,10.586,3.471C248.421,26.074,241.474,15.576,241.474,15.576"/>
	<path style="clip-path:url(#SVGID_2_);fill:#3A89C9;" d="M276.946,100.331c0,0-6.447-21.002-7.19-26.875
		c-0.747-5.869-3.808-15.297,0.823-21.247c4.633-5.957,11.907-7.445,15.136-4.549c3.221,2.894,7.52,11.657,7.687,15.296
		c0.167,3.639-0.33,11.33-3.309,11.825c-2.975,0.497-6.697-2.812-8.021-4.63c-1.322-1.821-3.142-4.881-3.142-4.881
		s-0.907-0.66-1.984,1.904c-1.072,2.562-1.321,8.268-1.321,8.268s-2.481-0.578-2.481,3.227
		C273.145,82.471,276.946,100.331,276.946,100.331"/>
	<path style="clip-path:url(#SVGID_2_);fill:#7DA7D9;" d="M271.822,81.147c0,0-4.63-16.619-3.555-21.333
		c1.074-4.712,1.485-9.346,6.035-11.495c4.545-2.149,9.59-2.646,12.237-0.163c2.648,2.479,6.617,9.012,3.309,10.583
		c-3.309,1.569-8.765-6.535-11.823-4.961c-3.062,1.572-5.623,6.946-5.623,10.915C272.401,68.664,271.822,81.147,271.822,81.147"/>
	<path style="clip-path:url(#SVGID_2_);fill:#FFFFFF;" d="M270.826,56.59c-0.66,3.307-0.99,8.352-0.41,8.436
		c0.577,0.082,0.66-5.294,1.239-7.443c0.58-2.148,1.487-3.887,0.91-4.132C271.987,53.201,270.826,56.59,270.826,56.59"/>
	<path style="clip-path:url(#SVGID_2_);fill:#FFFFFF;" d="M273.497,51.547c-0.541,0.094-0.979,0.196-0.932,0.637
		c0.048,0.439,0.343,0.783,0.638,0.734c0.294-0.051,0.637-0.295,0.685-0.588C273.938,52.039,273.497,51.547,273.497,51.547"/>
	<path style="clip-path:url(#SVGID_2_);fill:#FFFFFF;" d="M231.102,19.256c-1.512,0-2.454,0.377-2.454,3.398
		c0,3.02-0.382,5.472,0.942,5.849c1.321,0.38,1.512-2.453,1.7-4.909C231.479,21.143,231.102,19.256,231.102,19.256"/>
	<path style="clip-path:url(#SVGID_2_);fill:#FFFFFF;" d="M232.987,16.047c-0.942-0.378-1.886-0.19-2.076,0.753
		c-0.189,0.947,0,1.133,0.755,1.512c0.754,0.377,0.948,0.755,1.513-0.189C233.745,17.178,232.987,16.047,232.987,16.047"/>
	<path style="clip-path:url(#SVGID_2_);" d="M257.178,58.912c0.459-14.297-4.39-28.819-11.643-41.078
		c-4.745-8.017-13.419-9.962-18.582-1.605c-3.027,4.897-4.712,19.241,2.412,21.935c7.32,2.77,10.127-8.377,10.323-13.134
		c0.059-1.423-2.036,0.08-2.218,0.798c-0.652,2.54-1.311,4.775-2.443,7.202c-3.656,7.845-7.168-6.164-7.15-6.043
		c-0.713-4.769,1.904-18.112,12.428-10.868c2.52,1.735,4.344,4.81,5.801,7.338c6.17,10.694,9.74,23.895,9.613,36.149
		C255.709,60.51,257.155,59.564,257.178,58.912"/>
	<path style="clip-path:url(#SVGID_2_);" d="M267.734,105.875c2.312-15.349-13.197-35.117-23.62-44.877
		c-10.168-9.521-27.011-8.859-31.542,5.564c-2.545,8.101-2.23,31.525,12.187,28.032c11.896-2.883,8.777-21.451,2.883-27.782
		c-1.22-1.309-4.34,1.812-3.033,3.032c3.046,2.834,5.081,5.37,5.611,9.697c0.13,2.124-0.072,4.22-0.608,6.287
		c-2.56,12.016-10.82,4.592-13.273,0.729c-7.514-11.828,0.901-31.236,16.188-28.061c8.619,1.794,18.467,11.194,22.367,18.915
		c4.28,8.47,14.534,17.625,12.562,28.532C267.418,106.146,267.71,106.011,267.734,105.875"/>
	<path style="clip-path:url(#SVGID_2_);" d="M277.136,100.314c-2.015-6.79-3.475-13.771-4.845-20.718
		c-1.66-8.42-4.53-17.688-1.258-26.072c5.17-13.236,15.127-3.188,18.014,1.697c2.177,3.683,2.891,8.235,3.084,12.415
		c-2.407,1.469-4.817,2.938-7.225,4.404c-0.971-0.944-1.844-1.978-2.61-3.094c-1.967-2.58-3.352-6.182-3.923-9.365
		c-0.095-0.522-0.865,0.021-0.823,0.391c0.497,4.644,4.868,19.25,12.449,15.66c8.822-4.174,5.369-19.667,0.641-25.321
		c-7.146-8.545-17.025-5.943-22.015,3.161c-2.246,4.087-2.003,9.496-1.172,13.88c2.166,11.441,5.79,22.194,9.256,33.264
		C276.779,100.846,277.195,100.516,277.136,100.314"/>
	<path style="clip-path:url(#SVGID_2_);" d="M278.752,64.312c-2.948,2.285-3.912,5.962-3.348,9.565
		c0.043,0.272,0.414,0.008,0.438-0.156c0.465-3.057,0.809-6.058,3.399-8.115C280.091,64.933,279.891,63.432,278.752,64.312"/>
	<path style="clip-path:url(#SVGID_2_);" d="M237.466,30.688c1.104-1.289,2.886,0.129,3.764,0.923
		c0.577,0.522,1.18,1.01,1.738,1.555c0.577,0.56,0.812,1.342,1.381,1.904l0.381-0.273c-0.043-1.173-0.696-2.294-1.144-3.37
		c-0.395-0.953-0.991-2.497-2.036-2.856c-1.649-0.567-3.698,0.371-4.559,1.814C236.734,30.814,237.159,31.044,237.466,30.688"/>
	<path style="clip-path:url(#SVGID_2_);" d="M230.112,72.03c1.286-1.674,7.883,2.662,9.109,3.478c2.841,1.89,4.868,4.775,7.7,6.571
		c0.19,0.121,0.573-0.28,0.47-0.469c-2.434-4.477-14.403-19.282-19.219-9.936C227.347,73.284,229.467,72.872,230.112,72.03"/>
	<path style="clip-path:url(#SVGID_2_);" d="M269.847,241.38c0,0,4.333-7.23,68.432-14.459
		c64.103-7.23,104.105,11.567,104.105,11.567s-6.265,5.783-16.869,36.147c-10.602,30.364-32.774,48.676-54.459,52.532
		c-21.688,3.857-53.497,0-74.704-27.952c-9.619-12.68-11.567-24.581-13.496-37.113C281.291,251.922,269.847,241.38,269.847,241.38"
		/>
	<path style="clip-path:url(#SVGID_2_);" d="M294.832,300.366l1.523-1.154L294.832,300.366
		c-9.914-13.043-11.94-25.455-13.862-37.976l1.886-0.279l-1.886,0.279c-0.666-4.51-3.743-9.528-6.713-13.287
		c-1.472-1.889-2.92-3.479-3.988-4.599c-0.525-0.559-0.96-0.994-1.259-1.274l-0.347-0.334l-0.09-0.088l-0.015-0.017l-1.157-1.064
		l0.804-1.331l1.646,0.979l-1.293,1.416l1.298-1.412l-1.651-0.983c0.58-0.805,2.013-2.551,11.28-5.368
		c9.266-2.763,26.469-6.381,58.588-10.001c64.566-7.291,104.904,11.626,105.132,11.732l-0.826,1.709l0.011,0.011l0.815-1.72
		l1.857,0.873c0.028,0.304,0.051,0.612,0.073,0.92l-1.461,1.336l-0.14,0.175c-0.156,0.174-0.418,0.471-0.752,0.944
		c-0.698,0.927-1.765,2.536-3.183,5.09c-2.831,5.121-7.009,14.055-12.271,29.161L423.708,274
		c7.601-21.74,12.989-31.042,15.606-34.733c-1.168-0.473-2.78-1.092-4.804-1.791c-4.682-1.625-11.606-3.742-20.542-5.613
		c-17.833-3.759-43.656-6.626-75.476-3.042c-31.978,3.602-49.009,7.203-57.926,9.878c-4.092,1.205-6.459,2.229-7.783,2.917
		c3.297,3.387,10.521,11.554,11.963,20.196c1.939,12.553,3.81,23.936,13.128,36.245c20.648,27.222,51.613,30.999,72.839,27.222
		l0.683,3.76c-4.553,0.812-9.543,1.292-14.794,1.292C336.292,330.33,312.131,323.164,294.832,300.366 M271.352,242.546
		L271.352,242.546 M270.416,241.717l-0.007-0.008l-0.015-0.01l0.007,0.008L270.416,241.717 M441.542,240.203l0.004-0.005
		L441.542,240.203 M370.715,325.28c20.891-3.688,42.59-21.468,52.993-51.28l3.621,1.259c-10.807,30.929-33.451,49.777-55.932,53.781
		L370.715,325.28"/>
	<path style="clip-path:url(#SVGID_2_);fill:#FFFFFF;" d="M273.216,241.862c0,0,8.677-9.155,69.886-11.087
		c61.206-1.924,95.908,8.677,95.908,8.677s-4.822,0-14.941,27.955c-10.123,27.951-26.988,64.1-79.524,56.388
		c-58.874-8.644-56.387-62.174-61.687-70.849C277.553,244.271,273.216,241.862,273.216,241.862"/>
	<path style="clip-path:url(#SVGID_2_);" d="M296.352,233.188c-5.785,10.12-9.158,18.793-9.158,18.793s3.377-8.19,13.015-18.793"/>
	<path style="clip-path:url(#SVGID_2_);" d="M317.074,230.294c-11.085,25.063-17.832,45.787-17.832,45.787
		s11.086-31.81,22.173-45.306"/>
	<path style="clip-path:url(#SVGID_2_);" d="M338.763,229.333c-6.747,27.469-13.492,70.847-13.492,70.847
		s10.601-58.317,17.347-70.847"/>
	<path style="clip-path:url(#SVGID_2_);" d="M370.092,228.369c3.852,31.807,5.782,80.002,5.782,80.002s2.892-32.29-0.964-80.002"/>
	<path style="clip-path:url(#SVGID_2_);" d="M393.894,228.851c8.723,19.972,12.768,46.264,12.768,46.264s-2.277-29.072-6.826-45.759
		"/>
	<path style="clip-path:url(#SVGID_2_);" d="M417.786,231.883c5.564,15.8,5.564,22.754,5.564,22.754s0.123-6.829-1.521-20.987"/>
	<path style="clip-path:url(#SVGID_2_);fill:#989A9C;" d="M417.012,316.906c6.033-7.938,17.746-24.545,26.052-56.246
		c2.094-7.999,2.554-15.444,2.071-22.108l0.638-0.584l-0.711-0.336c-0.913-10.57-4.165-19.103-6.911-24.643
		c11.752,10.908,12.865,30.946,12.763,45.783c-0.12,20.247-4.807,39.376-19.214,54.113c-6.909,7.063-15.07,13.463-23.76,18.168
		c-5.231,2.828-11.417,4.367-16.827,6.99C396.267,334.514,411.98,323.491,417.012,316.906"/>
	<path style="clip-path:url(#SVGID_2_);" d="M391.112,338.043c5.41-2.624,11.596-4.162,16.827-6.99
		c8.689-4.705,16.851-11.105,23.76-18.168c14.407-14.737,19.094-33.867,19.214-54.113c0.103-14.836-1.011-34.875-12.763-45.783
		c-1.563-3.162-2.968-5.352-3.67-6.388c-0.3-0.456-0.49-0.684-0.49-0.684s10.192,7.938,13.217,13.218
		c3.023,5.279,5.296,12.081,6.416,38.501c1.138,26.417-7.919,43.778-23.023,60.021c-15.09,16.227-41.143,21.505-41.143,21.505
		S390.068,338.757,391.112,338.043"/>
	<path style="clip-path:url(#SVGID_2_);" d="M445.062,237.632l0.711,0.336l-0.638,0.584
		C445.112,238.244,445.09,237.936,445.062,237.632"/>
</g>
</svg>
